<?xml version="1.0" standalone="yes"?>
<svg xmlns="http://www.w3.org/2000/svg" width="713" height="713">
<path style="fill:#191817; stroke:none;" d="M360 36L358.5 36.0278L356.972 36.3334L356.083 36.7222L354.472 38.1111L353.25 40L352.75 41L351.611 43L350.389 45L349.25 47L348.75 48L347.611 50L346.389 52L345.194 54L344.611 55L343.389 57L342.25 59L341.75 60L340.611 62L339.389 64L338.25 66L337.75 67L336.611 69L335.389 71L334.25 73L333.75 74L332.611 76L331.389 78L330.806 79L329.611 81L328.389 83L327.25 85L326.75 86L325.611 88L324.389 90L323.25 92L322.778 93L321.75 95L321.167 96L320.611 97L319.389 99L318.25 101L317.75 102L316.611 104L315.389 106L314.833 107L314.25 108L313.222 110L312.75 111L311.611 113L310.389 115L309.25 117L308.75 118L307.611 120L306.389 122L305.25 124L304.75 125L303.611 127L302.389 129L301.25 131L300.75 132L299.528 133.917L297.917 135.528L296.972 136.139L296 136.722L294 137.611L293 138L292 138.389L291 138.806L289 139.611L287 140.389L285 141.25L284 141.778L283 142.222L282 142.778L280 143.75L279 144.167L277 145.056L276 145.528L274 146.472L273 146.944L271 147.833L270 148.25L269 148.778L268 149.222L267 149.778L265 150.778L264 151.222L263 151.778L262 152.222L260 153.25L259 153.833L257 154.944L256 155.472L255 156L253 157.083L251 158.333L250 158.972L249 159.611L247 160.806L246 161.389L245 162.028L244 162.667L242 164L240 165.389L239 166.139L238 166.861L237 167.639L236 168.361L235 169.139L234 169.861L232 171.389L231 172.194L229 173.806L228 174.611L227 175.389L225 177.083L224 178.028L222 180L220 182L219 183L217.028 185L215.222 187L214.417 188L213 190L211.667 192L210.389 194L209.833 195L209.278 196L208.833 197L208.389 198L207.694 200L207.389 201L207.139 202L206.639 204L206.389 205L206.083 207L206 209L206 210L206 211L206.083 213L206.472 215L206.861 216L207.278 217L208.472 219L210.083 220.889L211.028 221.694L212 222.361L213 222.889L214 223.306L216 224.028L216.944 224.361L217.944 224.833L218.5 225.028L220 226L217.944 226.583L216 227L215 227.222L214 227.472L213 227.833L211 228.611L209 229.389L208 229.833L207 230.25L205 231.222L204 231.778L203 232.222L202 232.778L201 233.25L199 234.389L198 235.028L197 235.667L196 236.333L194 237.667L192 239L191 239.694L190 240.389L188 241.861L187 242.639L186 243.389L185 244.194L183 245.806L181 247.389L180 248.222L178 250L177 250.917L175 252.611L174 253.389L172 255.083L171 256.028L169 258L167 260L160 267L155 272L153 274L152.028 275L151.083 276L149.389 278L148.611 279L146.944 281L146.056 282L144.389 284L142.806 286L141.194 288L140.389 289L138.861 291L138.139 292L137.361 293L136.639 294L135.861 295L134.389 297L133.694 298L132.306 300L131.611 301L130.861 302L129.389 304L128.028 306L126.806 308L125.611 310L124.389 312L123.194 314L122.611 315L121.333 317L120.667 318L120.028 319L119.389 320L118.25 322L117.778 323L117.222 324L116.75 325L116.167 326L115.056 328L114 330L113.5 331L112.5 333L111.5 335L111 336L110.056 338L109.639 339L109.167 340L108.75 341L107.778 343L107.222 344L106.778 345L106.25 346L105.833 347L105.389 348L104.611 350L104.194 351L103.389 353L102.611 355L102.194 356L101.389 358L100.611 360L99.8056 362L99.3889 363L99.0278 364L98.6667 365L98 367L97 370L95.6667 374L95 376L94.3889 378L94.1389 379L93.6111 381L93.3056 382L92.6944 384L92.4167 385L92.1944 386L91.8056 388L91.5833 389L91.3056 390L90.6944 392L90.4167 393L90.0556 395L89.9444 396L89.6111 398L89.3889 399L89.1944 400L88.8056 402L88.6111 403L88.3889 404L88.0556 406L87.9444 407L87.6111 409L87.3889 410L87.0833 412L87.0278 413L87 415L86.9722 416L86.9167 417L86.6111 419L86.3889 420L86.0833 422L86.0278 423L86 425L86 427L86 435L86 443L86 445L86.0278 447L86.0833 448L86.3889 450L86.6111 451L86.9167 453L86.9722 454L87.0278 456L87.0833 457L87.3889 459L87.6111 460L87.9444 462L88.0556 463L88.3889 465L88.6111 466L88.8056 467L89.1944 469L89.3889 470L89.6111 471L90 473L90.4722 475L90.8333 476L91.5278 478L91.7778 479L92.2222 481L92.4722 482L92.8333 483L93.6111 485L94.3889 487L94.8056 488L95.6111 490L96.3889 492L96.8333 493L97.25 494L97.7778 495L98.7778 497L99.2222 498L99.7778 499L100.778 501L101.25 502L102.389 504L103.611 506L104.806 508L105.389 509L106.694 511L108.139 513L108.861 514L110.389 516L112.083 518L113.028 519L115 521L117 522.917L119 524.611L120 525.361L121 526.139L123 527.556L125 528.75L126 529.222L128 530.222L129 530.75L130 531.167L132 531.972L134 532.583L136 532.944L137 533.083L138 533.333L140 534.25L141.917 535.611L143.611 537L144.389 537.694L146.083 539.139L148 540.611L150 541.972L151 542.611L152 543.167L153 543.75L154 544.222L155 544.75L157 545.611L158 545.972L160 546.667L162 547.306L163 547.611L165 548.139L166 548.361L167 548.611L169 548.917L171 549.083L173 549.389L174 549.611L176 549.917L177 549.972L179 550L183 550L185 550L187 549.972L188 549.917L190 549.611L191 549.389L193 549.083L195 548.972L196 548.917L198 548.611L200 548.222L201 548.056L202 547.944L204 547.611L205 547.361L206 547.139L207 546.861L209 546.389L210 546.194L212 545.806L213 545.583L214 545.306L216 544.694L217 544.389L219 543.833L220 543.556L221 543.167L222 542.806L223 542.389L225 541.611L226 541.194L228 540.389L230 539.611L231 539.167L232 538.75L233 538.222L235 537.222L236 536.778L237 536.222L238 535.778L239 535.222L241 534.222L242 533.75L243 533.167L244 532.611L246 531.389L247 530.806L248 530.194L249.944 529.056L250.5 528.694L252 528L252 531.056L252 533L252.028 535L252.083 536L252.389 538L252.639 539L252.861 540L253.139 541L253.389 542L253.694 543L254.333 545L255.083 547L255.528 548L256.5 550L257.611 552L258.306 553L260.028 555L262 557L264 558.972L265 559.917L267 561.583L268 562.306L270 563.611L271 564.167L272 564.722L274 565.556L276 566.139L277 566.389L278 566.694L279 567L281 567.583L283 567.917L284 567.972L286 568L287 568L289 568L292 568L293 568L295 567.972L296 567.917L298 567.611L299 567.361L301 566.861L302 566.639L303 566.361L304 566.139L306 565.611L307 565.306L308 565L310 564.306L311 563.917L313 563L314 562.5L315 562L317 560.917L318 560.306L319 559.667L321 558.333L323 557L324 556.306L325 555.583L327 553.944L328 553.056L329.917 551.389L330.778 550.611L331.611 549.778L333.222 547.972L334.083 547L335.944 545.056L336.944 544.056L339 542L338.667 543.5L338.361 544.056L337.889 545.056L337.306 546L336.028 548L335.389 549L334.806 550L333.611 552L332.389 554L331.25 556L330.75 557L329.611 559L328.389 561L327.25 563L326.75 564L325.611 566L324.389 568L323.194 570L322.611 571L321.333 573L320.667 574L320.028 575L319.389 576L318.25 578L317.75 579L316.611 581L315.389 583L314.806 584L313.611 586L312.389 588L311.25 590L310.75 591L309.611 593L308.972 594L307.667 596L307.028 597L306.389 598L305.25 600L304.75 601L303.611 603L302.389 605L301.194 607L300.611 608L299.333 610L298.667 611L298.028 612L297.389 613L296.25 615L295.75 616L294.611 618L293.389 620L292.194 622L291.611 623L290.972 624L289.667 626L289.028 627L288.389 628L287.25 630L286.75 631L285.611 633L284.389 635L283.806 636L282.611 638L281.389 640L280.25 642L279.75 643L278.611 645L277.389 647L276.25 649L275.75 650L274.611 652L273.389 654L272.25 656L271.778 657L271.25 658L270.444 660L269.861 662L269.611 663L269.306 664L269 665L268.417 667L268.222 668L268.083 669L268 671L268 672L268 673L268 675L268 676L268.083 678L268.25 679L268.472 680L269.25 682L269.778 683L270.25 684L271.472 686L273.083 687.917L275 689.5L277 690.583L279 691.306L281 691.778L282 691.917L284 691.917L286 691.611L287 691.361L288 691.111L290 690.389L291 689.917L293 688.806L295 687.556L296 686.861L298 685.778L299 685.583L301 685.861L303 686.556L305 687.139L306 687.361L307 687.611L309 687.917L311 688L313 687.917L314 687.778L316 687.389L317 687.194L319 686.778L320 686.528L322 685.75L323 685.222L324 684.778L325 684.222L326 683.778L327 683.222L328 682.75L330 681.611L331 680.972L333 679.611L334 678.861L336 677.361L337 676.611L339 674.944L340 674.056L342 672.389L343 671.611L345 669.917L347 668L348 667L349.917 665L350.778 664L352.389 662L354.083 660L355.028 659L356.889 657L357.667 656.056L358.639 654.5L359 653L360.5 653.361L361.972 654.333L363.611 656.028L364.389 657L366.083 659L367.028 660L369 662L370 663L373 666L376 669L377 670L379 671.972L380 672.917L382 674.611L383 675.389L385 677L387 678.611L389 680.139L390 680.833L391 681.556L393 682.75L394 683.222L395 683.778L396 684.222L397 684.75L399 685.611L401 686.306L402 686.611L403 686.861L405 687.361L406 687.611L408 687.917L410 688L412 687.917L414 687.611L415 687.361L417 686.833L418 686.556L420 685.75L421 685.25L422.944 684.472L424.5 684.083L426 684L426.361 685.25L426.722 685.667L427.333 686.417L429.028 687.833L430 688.556L432 689.722L433 690.167L434 690.611L436 691.306L437 691.583L439 691.917L441 691.972L442 691.917L444 691.583L445 691.278L447 690.444L448.972 689.278L449.917 688.583L451.528 686.917L452.75 685L453.222 684L453.75 683L454.528 681L454.778 680L455.194 678L455.389 677L455.611 676L455.833 674L455.75 673L455.611 672L455.222 670L455.083 669L454.917 667L454.583 665L454.306 664L453.667 662L452.972 660L452.611 659L451.75 657L451.222 656L450.75 655L450.167 654L449.611 653L448.389 651L447.25 649L446.75 648L445.611 646L444.389 644L443.25 642L442.75 641L441.611 639L440.389 637L439.194 635L438.611 634L437.389 632L436.25 630L435.75 629L434.611 627L433.389 625L432.194 623L431.611 622L430.333 620L429.667 619L429.028 618L428.389 617L427.833 616L427.25 615L426.75 614L425.611 612L424.972 611L424.333 610L423.667 609L422.389 607L421.806 606L420.611 604L419.389 602L418.25 600L417.75 599L416.611 597L415.972 596L415.333 595L414.667 594L413.389 592L412.806 591L411.611 589L410.389 587L409.25 585L408.75 584L407.611 582L406.389 580L405.194 578L404.611 577L403.389 575L402.194 573L401.611 572L400.389 570L399.194 568L398.611 567L397.389 565L396.25 563L395.75 562L394.611 560L393.389 558L392.25 556L391.75 555L390.611 553L389.389 551L388.194 549L387.611 548L386.389 546L385.194 544L384.611 543L383.389 541L382.25 539L381.75 538L380.528 536.028L378.917 534.333L377.972 533.722L376 533.111L374 533L373 533L372 533L369 533L356 533L353 533L352 533L350 533.028L349 533.083L347.056 533.389L345.5 533.75L344 534L344.083 532.5L344.472 530.944L345.167 529L345.528 528L345.778 527L346 526L346.389 524L346.611 523L346.917 521L347 519L347 518L346.972 517L346.917 516L346.778 515L346.389 513L346.194 512L346 511L345.528 509L344.722 507L343.528 505L342.75 504.028L341.917 503.111L340 501.639L338 500.639L337 500.194L335 499.472L334 499.25L333 499.083L331 499L330 499L328 499L326 499.083L324 499.472L323 499.833L321 500.556L320 500.861L318 501.611L316 502.639L314 503.806L312 505.028L310 506.389L309 507.139L307 508.639L306 509.389L304 511.083L302.083 513L300.389 515L299.639 516L298.139 518L297.389 519L296.083 521L295.556 522L294.639 524L293.806 526L293.389 527L292.694 529L292.222 531L292.028 533L292 535L292 536L292.083 538L292.5 539.917L292.944 540.75L293.5 541.528L295.028 542.75L295.528 543L297 544L298.5 543.556L300.056 542.889L300.972 542.361L302.667 540.889L303.667 539L303.861 537L303.278 535.083L302.722 534.278L301.944 533.472L300 532L298.5 532.5L297 533.194L296.5 533.5L295 534L294.639 531.944L294.639 530.944L295.111 529L295.528 528L296.5 526L297 525L298.083 523L299.417 521L300.222 520L302.028 518L304 516L306 514.028L307 513.083L309 511.389L310 510.639L311 509.861L312 509.139L313 508.389L314 507.694L316 506.389L318 505.278L319 504.833L320 504.389L322 503.611L323 503.194L325 502.472L327 502.083L329 502L331 502.083L333 502.417L334 502.694L336 503.417L338 504.5L338.972 505.25L340.778 507.028L342.278 509L343.361 511L343.694 512L343.889 513L343.972 514L344 516L344 517L343.917 519L343.611 521L343.139 523L342.833 524L342.556 525L342.167 526L341.806 527L340.944 529L339.944 531L339.361 532L338.194 534L336.972 536L335.611 538L334.861 539L334.139 540L332.611 542L330.917 544L329.972 545L329 546L327 548L325 549.972L324 550.917L322 552.611L320 554.139L319 554.861L318 555.611L316 556.972L315 557.611L313 558.75L312 559.222L311 559.778L310 560.222L309 560.75L308 561.167L307 561.611L305 562.389L303 563.167L302 563.528L301 563.778L299 564.194L297 564.611L295 564.917L294 564.972L293 565L291 565.028L289.083 565.139L288.222 565.167L287.389 565.222L286.611 565.167L284.917 565.028L283.972 564.944L282 564.611L281 564.361L280 564.139L278 563.556L277 563.139L276 562.75L275 562.222L273 561.167L272 560.611L270 559.306L269.028 558.583L267.222 556.917L265.694 555L265.028 554L263.833 552L263.278 551L262.389 549L261.694 547L261.417 546L261.222 545L261.083 544L261 542L261 541L261 540L261 538L261 536L261 535L261.083 533L261.222 532L261.417 531L262 529L262.306 528L262.611 527L262.861 526L263.389 524L263.694 523L264.417 521L265.5 519L267.083 517L268.028 516.028L269 515.083L271 513.389L272 512.611L274 510.917L275 509.972L276.917 508L277.778 507.028L279.389 505.25L280.222 504.5L281.083 503.944L282.028 503.5L284 503L286 502.611L287 502.389L289 502.083L291 501.972L292 501.917L294 501.611L295 501.389L297 501.056L298 500.944L300 500.611L302 500.139L303 499.861L305 499.389L306 499.194L308 498.806L309 498.583L310 498.306L312 497.694L313 497.389L314 497.139L316 496.556L317 496.167L319 495.444L320 495.167L322 494.556L324 493.806L325 493.389L327 492.667L328 492.333L330 491.611L332 490.806L333 490.361L334 489.944L336 489L338 488L339 487.5L341 486.5L342 486L344 484.917L345 484.278L347 482.889L348.944 481.694L350.5 481.111L352 481L352.278 482.5L352.861 484.056L353.25 485L353.75 486L354.611 488L355.333 490L355.972 492L356.25 494L356.056 495L355.583 496L354 498L353.083 499L351.5 501L350.5 503L350.083 505L350.028 507L350.083 508L350.222 509L350.722 511L351.111 512L352.306 513.972L353.111 514.917L355 516.528L356 517.139L357 517.722L359 518.528L361 518.889L362 518.889L364 518.528L365 518.167L367 517.361L368 516.917L369.917 515.694L371.5 513.972L372.528 512L373.139 510L373.528 508L373.528 506L373.139 504L372.528 502L371.5 500L370.778 499L370.028 498L369.306 497L368.417 495L368.444 493L368.694 492L369.333 490L370.028 488L370.389 487L371.25 485L372.167 483.056L372.5 482.5L373 481L374.5 481.333L375.056 481.639L376.056 482.083L377 482.639L378 483.194L380 484.389L382 485.611L383 486.167L384 486.75L385 487.222L387 488.222L388 488.75L390 489.611L392 490.389L394 491.25L395 491.75L397 492.611L399 493.389L401 494.167L402 494.556L403 494.833L405 495.444L406 495.833L408 496.528L409 496.778L411 497.194L413 497.694L415 498.306L416 498.611L418 499.139L419 499.361L420 499.639L421 499.861L422 500.139L424 500.611L426 500.944L427 501.056L429 501.389L430 501.611L432 501.917L433 501.972L435 502L437 502.083L438 502.222L439 502.417L441 503.111L443 504.306L445 506.028L446 507L448 509L450 511L451 512L452 513L454 514.917L456 516.611L456.972 517.389L458.75 519.083L459.5 520.028L460.583 522L460.972 523L461.611 525L461.861 526L462.361 528L462.611 529L462.806 530L463 531L463.389 533L463.611 534L463.917 536L463.972 537L464 539L463.972 541L463.917 542L463.611 544L463.361 545L463.139 546L462.556 548L461.75 550L461.222 551L460.139 553L459.528 554L458.75 555L456.972 557L455 558.917L453 560.528L451 561.75L450 562.222L449 562.75L447 563.556L446 563.833L444 564.361L443 564.611L441 564.917L440 564.972L438 565L437 565L435 565L433 565L431 564.972L430 564.917L428 564.611L427 564.389L426 564.194L424 563.806L423 563.583L422 563.306L420 562.611L419 562.194L417 561.389L415 560.611L413 559.722L411 558.611L410 557.972L408 556.611L407 555.861L406 555.139L404 553.611L402 551.917L401 550.972L400 550L398 548L396 546L395 545L394 544L392.083 542L390.417 540L389 538L388.333 537L387.028 535L386.389 534L385.25 532L384.778 531L384.222 530L383.778 529L383.25 528L382.444 526L382.167 525L381.861 524L381.389 522L381.056 520L380.944 519L380.694 517L380.611 516L380.611 515L380.889 513L381.167 512L381.472 511L382.5 509L383.25 508L384.083 507.028L386 505.25L387 504.472L389 503.278L391 502.472L393 502.083L394 502.028L395 502L397 502.083L399 502.417L400 502.694L402 503.333L404 504.028L405 504.389L407 505.278L408 505.833L409 506.389L410 507.028L412 508.417L414 510.056L415 510.944L416 511.778L418 513.389L419.972 515.083L420.917 516.028L422.611 518L423.361 519L424.861 521L425.611 522L426.306 523L427.611 525L428.167 526L428.722 527L429.167 528L429.611 529L430.333 530.944L430.556 531.5L431 533L430 534L427.944 533.417L426 533.083L425.056 533.028L424.056 533L422 533L421 534L421 541L422.5 541.972L423.056 542.139L424.056 542.556L426 542.917L428 542.889L429.972 542.278L431.667 540.889L432.667 539L432.889 538L432.972 537L433 535L432.917 533L432.583 531L432.306 530L431.667 528L430.972 526L430.611 525L430.167 524L429.722 523L429.167 522L428.611 521L427.972 520L426.583 518L424.917 516L423.083 514.028L421.389 512.222L420.611 511.389L418.917 509.778L417.972 508.944L417 508.056L415 506.417L413 505.028L412 504.389L411 503.833L410 503.25L409 502.778L408 502.25L406 501.389L405 501.028L403 500.333L401 499.694L399 499.222L398 499.083L396 499L395 499L394 499L392 499.028L391 499.083L389 499.472L387 500.278L386 500.833L385.028 501.389L384.083 502.028L382.417 503.417L381.028 505.083L380.417 506.028L379.472 508L379.167 509L378.639 511L378.389 512L378.083 514L378.028 515L378 516L378 518L378 520L378.028 521L378.083 522L378.389 524L378.611 525L379 527L379.472 529L379.833 530L380.611 532L381.417 534L382.417 536L383.028 537L384.333 539L385 540L386.389 542L387.139 543L387.861 544L388.639 545L389.389 546L391.083 548L393 550L394 550.972L395 551.917L397 553.611L398 554.361L399 555.139L400 555.861L402 557.306L404 558.611L405 559.194L407 560.389L408 561L410 562.167L411 562.722L412 563.167L413 563.611L415 564.389L416 564.806L418 565.528L419 565.778L420 566L422 566.389L424 566.861L425 567.139L426 567.361L427 567.611L429 567.917L430 567.972L432 568L433 568L435 568L438 568L439 568L440 568L442 567.917L443 567.778L444 567.583L445 567.306L447 566.694L448 566.389L449 566.111L451 565.389L453 564.361L455 563.25L456 562.75L458 561.528L460 559.917L461 558.972L462 558L463.917 556L464.778 555L465.583 554L466.306 553L467.611 551L468.75 549L469.222 548L469.75 547L470.556 545L470.833 544L471.139 543L471.611 541L471.917 539L472 538L472.083 537L472.389 535L472.722 533.056L472.667 532.056L472.694 531.5L472 530L474.056 529.917L476 530.5L478 531.611L479 532.194L480 532.806L481 533.361L482 533.944L484 535L485 535.5L486 536L488 536.944L489 537.361L490 537.833L491 538.25L492 538.778L493 539.222L494 539.75L496 540.611L498 541.333L499 541.667L501 542.389L502 542.806L504 543.556L505 543.833L507 544.444L508 544.833L510 545.528L511 545.778L513 546.194L514 546.389L516 546.861L517 547.139L519 547.611L520 547.778L521 547.917L523 548.083L524 548.222L526 548.611L527 548.778L528 548.917L530 549.083L531 549.222L533 549.611L535 549.917L536 549.972L538 550L539 550L542 550L544 550L545 550L547 549.972L548 549.917L550 549.611L551 549.389L553 549.056L554 548.944L556 548.611L558 548.194L560 547.778L561 547.528L562 547.167L563 546.806L565 546L567 545.194L568 544.806L569 544.361L570 543.944L572 542.917L574 541.667C575.02 541.001 576.019 540.305 577 539.583L578 538.778L580 537L581 536.111L582 535.306L584 534.111L585 533.722L586 533.417L588 533L589 532.806L590 532.583L592 532L593 531.667L595 530.972L597 530.111L598 529.583L600 528.389L601 527.806L603 526.528L604 525.778L606 524.194L607 523.389L608 522.611L609.972 520.917L610.917 519.972L612.611 518L614.139 516L614.861 515L615.639 514L616.361 513L617.139 512L618.556 510L619.167 509L620.389 507L621.028 506L622.306 504L622.917 503L623.472 502L624.5 500L625 499L625.944 497L626.361 496L627.25 494L627.75 493L628.611 491L629.389 489L630.194 487L630.611 486L631.333 484L632 482L632.306 481L632.611 480L632.861 479L633.389 477L633.694 476L634.306 474L634.583 473L634.806 472L635.194 470L635.389 469L635.611 468L635.806 467L636.194 465L636.389 464L636.778 462L637 460L637.083 459L637.389 457L637.611 456L637.917 454L637.972 453L638 451L638.028 449L638.083 448L638.389 446L638.611 445L638.917 443L638.972 442L639 440L639 438L639 435L639 432L639 431L638.972 429L638.917 428L638.611 426L638.389 425L638.083 423L638.028 422L638 420L638 418L637.972 417L637.917 416L637.611 414L637.389 413L637.083 411L636.972 409L636.917 408L636.611 406L636.389 405L636.194 404L635.806 402L635.611 401L635.389 400L635.056 398L634.944 397L634.611 395L634.361 394L634.139 393L633.861 392L633.389 390L633.194 389L633 388L632.583 386L632 384L631.694 383L631.389 382L630.861 380L630.611 379L630 377L629.333 375L628 371L627 368L626.333 366L625.611 364L625.194 363L624.444 361L624.139 360L623.417 358L622.972 357L622.056 355L621.194 353L620.806 352L620.389 351L619.611 349L618.75 347L618.25 346L617.361 344L616.944 343L616.472 342L615.528 340L615.056 339L614.167 337L613.75 336L612.778 334L612.222 333L611.778 332L610.75 330L609.611 328L608.389 326L607.25 324L606.75 323L605.611 321L604.389 319L603.25 317L602.75 316L601.611 314L600.972 313L600.333 312L599.667 311L598.389 309L597.806 308L596.611 306L595.306 304L593.861 302L593.139 301L592.361 300L591.639 299L590.861 298L589.389 296L588 294L586.583 292L585 290L583.389 288L582.611 287L581.806 286L580.194 284L579.389 283L578.611 282L576.917 280L575.972 279L574.083 277L572.389 275L571.611 274L569.917 272L568.972 271L567 269L566 268L564 266L563 265L561 263L559 261L557 259.028L556 258.083L554 256.389L553 255.611L551 253.917L549 252.028L548 251.083L546 249.389L545 248.611L544 247.806L542 246.194L541 245.389L540 244.611L538 243L536 241.417L534 240L532 238.667L530 237.333L529 236.667L527 235.389L526 234.806L524 233.611L522 232.389L521 231.833L520 231.25L519 230.778L518 230.25L517 229.833L516 229.389L514 228.667L512 228L510 227.389L509 227.139L507.056 226.611L505 226L506.5 225.278L507.056 225.25L508.056 225.056L509 225.028L511 224.917L512 224.75L513 224.528L515 223.806L516 223.361L517 222.917L518.972 221.694L519.917 220.889L521.528 219L522.139 218L523.139 216L523.528 215L523.75 214L523.917 213L524 211L524 210L524 209L524 208L523.917 206L523.778 205L523.583 204L523 202L522.667 201L521.972 199L521.611 198L521.167 197L520.722 196L520.167 195L519.611 194L518.306 192L517.611 191L516.861 190L515.361 188L514.611 187L512.917 185L511 183L509 181L507 179L506 178.028L505 177.083L503 175.389L501 173.806L499 172.194L498 171.389L496 169.861L495 169.139L494 168.361L493 167.639L492 166.861L491 166.139L490 165.389L488 164L486 162.667L485 162.028L484 161.389L482 160.194L481 159.611L479 158.333L478 157.667L476 156.389L475 155.833L474 155.25L473 154.778L471 153.778L470 153.222L469 152.778L468 152.222L467 151.778L466 151.222L464 150.25L463 149.833L462 149.361L461 148.944L459 148L458 147.5L456 146.5L455 146L453 145.056L451 144.167L450 143.75L448 142.778L447 142.222L446 141.778L445 141.25L443 140.389L441 139.611L440 139.194L438 138.389L437 138L436 137.611L434 136.722L432.083 135.528L431.25 134.75L430.472 133.917L429.25 132L428.75 131L427.611 129L426.389 127L425.25 125L424.75 124L423.611 122L422.389 120L421.833 119L421.25 118L420.222 116L419.75 115L418.611 113L417.389 111L416.25 109L415.75 108L414.611 106L413.389 104L412.833 103L412.25 102L411.222 100L410.75 99L410.167 98L409.611 97L408.389 95L407.25 93L406.75 92L405.611 90L404.389 88L403.25 86L402.75 85L401.611 83L400.389 81L399.806 80L398.611 78L397.389 76L396.25 74L395.75 73L394.611 71L393.389 69L392.25 67L391.75 66L390.611 64L389.389 62L388.806 61L387.611 59L386.389 57L385.25 55L384.75 54L383.611 52L382.389 50L381.194 48L380.639 47L380.056 46L379.528 45L378.472 43L377.917 42L377.306 41L376.056 39.0555L375.389 38.0555L375.056 37.5L374 36L370 36L371.5 34.5834L372.028 34.1667L373.75 32.6111L374.528 31.7778L375.722 29.9722L376.528 28L376.917 26L376.972 24L376.75 22L376.5 21L375.583 19.0278L374.972 18.0833L373.583 16.3889L372.778 15.6389L370.972 14.25L370 13.6945L368 13.1111L367 13.0278L365 13L363 13.0833L362 13.25L361 13.5L359.028 14.4166L358.083 15.0278L356.417 16.4167L355.722 17.2222L354.556 19.0278L353.722 21L353.417 22L353.111 24L353.222 26L353.417 27L353.694 28L354.417 29.9722L355.5 31.7778L356.25 32.6111L357.972 34.1667L358.5 34.5834L360 36M366 54L367 55.5L367.25 56.0555L367.861 57.0555L368.389 58L369.611 60L370.194 61L371.389 63L372.611 65L373.75 67L374.25 68L375.389 70L376.667 72L377.306 73L377.889 74L378.694 76L378.889 76.9445L379 78.5L379 80L377.528 79.8889L376.278 79.3333L375.361 78.3889L375 77L372.944 77.0833L371 77.3889L370 77.6111L368 77.9167L367 77.9722L365 78L363 77.9167L361 77.6111L359.056 77.2222L358.056 77.0833L356 77L355.528 78.4445L355.167 79L354 81L352.611 80.2222L351.667 78.8889L351.222 77L351.639 75L352.111 74L352.694 73L353.972 71L354.611 70L355.75 68L356.25 67L357.389 65L358.611 63L359.806 61L360.389 60L361.611 58L362.139 57.0555L362.75 56.0555L363 55.5L364 54L366 54M350 81L351.306 83.0555L351.611 84.0555L351.583 85L350.917 87L349.833 89L349.25 90L348.75 91L347.611 93L347 94L346.389 95L345.25 97L344.75 98L343.611 100L342.389 102L341.194 104L340.611 105L339.389 107L338.25 109L337.75 110L336.611 112L335.389 114L334.194 116L333.611 117L332.306 119L331.583 120L329.917 121.917L328.056 123.5L326.5 124.472L325 125L324 124L324.5 122.5L324.833 121.944L325.278 120.944L326.389 119L327.611 117L328.167 116L328.75 115L329.778 113L330.25 112L330.833 111L331.389 110L332.611 108L333.75 106L334.25 105L335.361 103L335.944 102L336.472 101L337.528 99L338.056 98L339.194 96L339.806 95L340.389 94L341.611 92L342.194 91L343.389 89L344.611 87L345.75 85L346.194 84.0555L346.778 83.0555L347 82.5L348 81L350 81M382 81L383 82.5L383.25 83.0555L383.861 84.0555L384.389 85L385.611 87L386.75 89L387.25 90L388.389 92L389.611 94L390.75 96L391.25 97L392.389 99L393.611 101L394.75 103L395.222 104L396.25 106L396.833 107L397.389 108L398.611 110L399.167 111L400.222 113L400.778 114L401.25 115L402.389 117L403.611 119L404.694 121L405.278 122.944L405.444 123.5L405 125L403.5 124.306L402.028 123.278L400.472 121.778L399.194 119.972L397.972 118L396.667 116L396.028 115L395.389 114L394.25 112L393.778 111L393.222 110L392.75 109L391.611 107L390.389 105L389.25 103L388.75 102L387.611 100L386.389 98L385.806 97L384.611 95L383.389 93L382.25 91L381.75 90L381.167 89L380.083 87L379.306 85L379.111 84.0555L379 82.5L379 81L382 81M366 98L368.056 100.056L369.056 101.056L370.917 103L372.528 105L373.167 106L374.389 108L375.611 110L376.806 112L377.389 113L378.611 115L379.806 117L380.389 118L381.611 120L382.194 121L383.389 123L384.611 125L385.194 126L386.389 128L387.611 130L388.75 132L389.25 133L390.389 135L391.028 136L391.667 137L392.333 138L393.611 140L394.194 141L395.389 143L396.611 145L397.806 147L398.389 148L399.611 150L400.806 152L401.389 153L402.611 155L403.194 156L404.389 158L405.611 160L406.75 162L407.25 163L408.389 165L409.028 166L410.333 168L410.972 169L411.611 170L412.75 172L413.25 173L414.389 175L415.611 177L416.806 179L417.389 180L418.611 182L419.194 183L420.389 185L421.611 187L422.75 189L423.25 190L424.389 192L425.611 194L426.194 195L426.806 196L428 198L429.194 200L429.806 201L430.389 202L431.611 204L432.167 205L432.75 206L433.222 207L434.222 209L434.778 210L435.222 211L435.778 212L436.222 213L436.778 214L437.222 215L437.778 216L438.222 217L439.222 219L439.75 220L440.611 222L440.972 223L441.611 225L441.861 226L442.139 227L442.583 229L442.694 230L442.528 231.944L442.139 232.944L441 235L439.861 234.222L439.639 233.694L439.194 232.889L438.556 231L437.75 229L437.222 228L436.222 226L435.75 225L434.611 223L433.333 221L432 219L431.306 218L429.861 216L429.139 215L428.361 214L427.611 213L425.917 211L424 209L423 208L421 206L420 205.028L419 204.083L417 202.389L416 201.639L414 200.139L413 199.361L412 198.639L411 197.861L410 197.139L408 195.694L406 194.389L405 193.806L403 192.611L401 191.389L400 190.833L399 190.25L398 189.778L396 188.778L395 188.25L394 187.833L392 186.944L390 186L388 185.083L386 184.333L384 183.694L383 183.417L382 183.222L380 183.028L378 183L377 183L375 183.083L373 183.5L371 184.5L369.111 186.028L368.306 186.972L367.778 187.5L367 189L364 189L363.222 187.5L362.694 186.972L361.889 186.028L360 184.5L358 183.5L357 183.222L355.083 182.889L353.389 182.778L352.611 182.833L350.917 182.972L349.972 183.056L348 183.472L347 183.833L345 184.556L343 185.167L342 185.444L340 186.25L339 186.778L338 187.222L337 187.778L336 188.222L335 188.778L333 189.778L332 190.25L331 190.833L330 191.389L328 192.611L326 193.806L325 194.389L324 195.028L322 196.333L320 197.694L319 198.417L317 200.056L316 200.944L315 201.778L314 202.611L313 203.389L311 205.083L309 207L308 208L306.083 210L304.389 212L303.611 213L302 215L300.389 217L298.861 219L298.167 220L297.444 221L296.25 223L295.778 224L295.222 225L294.778 226L293.778 228L293.25 229L292.444 231L292.194 231.944L291.833 232.944L291.75 233.5L291 235L289.611 234.222L288.667 232.889L288.194 231L288.417 229L288.694 228L289.306 226L289.611 225L289.861 224L290.444 222L290.861 221L291.25 220L292.222 218L292.778 217L293.222 216L293.778 215L294.222 214L295.222 212L295.778 211L296.222 210L296.778 209L297.222 208L298.25 206L299.389 204L300.667 202L301.972 200L303.167 198L303.75 197L304.778 195L305.25 194L305.833 193L306.389 192L307.611 190L308.194 189L309.389 187L310.611 185L311.806 183L312.389 182L313.611 180L314.806 178L315.389 177L316.611 175L317.194 174L318.389 172L319.611 170L320.194 169L321.389 167L322.611 165L323.194 164L324.389 162L325.611 160L326.75 158L327.25 157L328.389 155L329.611 153L330.806 151L331.389 150L332.667 148L333.333 147L333.972 146L334.611 145L335.75 143L336.25 142L337.389 140L338.611 138L339.806 136L340.389 135L341.611 133L342.806 131L343.389 130L344.611 128L345.194 127L346.389 125L347.611 123L348.806 121L349.389 120L350.667 118L351.333 117L351.972 116L352.611 115L353.167 114L353.75 113L354.25 112L355.389 110L356.028 109L357.333 107L358.611 105L359.194 104L360.472 102L361.194 101.056L362.528 99.5L364 98L366 98M327 127L326.722 128.5L326.083 130.056L325.583 131L324.333 133L323.667 134L322.389 136L321.806 137L320.611 139L319.389 141L318.25 143L317.75 144L316.611 146L315.972 147L315.333 148L314.667 149L313.389 151L312.806 152L311.611 154L310.389 156L309.194 158L308.611 159L307.389 161L306.194 163L305.611 164L304.389 166L303.806 167L302.611 169L301.389 171L300.25 173L299.75 174L298.611 176L297.972 177L297.333 178L296.028 180L295.389 181L294.806 182L293.611 184L292.389 186L291.25 188L290.75 189L289.611 191L288.389 193L287.25 195L286.75 196L285.611 198L284.389 200L283.833 201L283.25 202L282.222 204L281.778 205L281.25 206L280.389 208L280.028 209L279.389 211L279.139 212L278.861 213L278.389 215L278.194 216L277.806 218L277.639 219L277.444 221L277.639 223L278 225L278.417 227L279.083 229L279.556 230L280.722 232L282.222 234L284.028 235.917L286 237.528L287.944 238.75L288.5 239L290 240L290 242.056L290 243.056L290.028 245L290.083 246L290.417 248L291 250L291.333 251L292.028 253L292.389 254L292.833 255L293.278 256L293.833 257L294.389 258L295.028 259L296.417 261L298.083 263L299.028 263.972L300 264.917L302 266.583L303 267.306L305 268.583L306 269.111L307 269.583L309 270.333L310 270.667L312 271.306L313 271.583L315 271.917L317 272L318 271.972L319 271.917L321 271.583L323 271L324 270.667L326 269.972L327 269.611L329 268.722L330 268.167L331 267.611L333 266.389L335 265.194L336 264.611L338 263.306L339 262.583L341 260.944L343 259.222L344 258.389L345 257.611L347 255.917L348 254.972L350 253L352 251L355 248L357 246L357.972 245L358.917 244L360.611 242L361.389 241.028L363.083 239.333L364.944 238.333L365.944 238.111L368 238L368.778 239.5L369.278 240.056L370.806 242L371.611 243L372.389 244L374.083 246L375.028 247L377 249L379 251L381 253L382 254L384 255.972L385 256.917L387 258.611L388 259.361L390 260.861L391 261.639L392 262.361L393 263.139L394 263.861L395 264.611L397 265.972L398 266.611L400 267.75L401 268.222L402 268.75L404 269.611L405 269.972L407 270.611L408 270.861L410 271.361L411 271.611L413 271.917L414 271.972L416 271.917L418 271.583L420 271L421 270.667L423 269.917L425 268.917L426 268.306L428 267L430 265.583L431.972 263.917L432.917 262.972L434.583 261L435.972 259L436.611 258L437.75 256L438.222 255L438.75 254L439.556 252L440.139 250L440.361 249L440.611 248L440.917 246L440.972 245L441 243.056L441 242.056L441 240L442.5 239L443.056 238.75L445 237.528L447 235.917L448.917 234L450.528 232L451.139 231L451.722 230L452.139 229L452.528 228L452.917 226L453 224L453 223L453 221L453 219L453 218L452.917 216L452.778 215L452.583 214L452 212L451.667 211L450.972 209L450.611 208L449.75 206L449.222 205L448.222 203L447.778 202L447.222 201L446.167 199L445.611 198L444.389 196L443.806 195L442.611 193L441.389 191L440.25 189L439.75 188L438.611 186L437.972 185L436.667 183L436.028 182L435.389 181L434.25 179L433.75 178L432.611 176L431.389 174L430.194 172L429.611 171L428.389 169L427.806 168L426.611 166L425.389 164L424.806 163L423.611 161L422.389 159L421.194 157L420.611 156L419.333 154L418.667 153L417.389 151L416.806 150L415.611 148L414.389 146L413.25 144L412.75 143L411.611 141L410.972 140L409.667 138L408.389 136L407.806 135L407.194 134L406.083 132L405.639 131.056L405.111 129.5L405 128L406.472 128.278L407.833 128.944L408.583 129.5L409.972 131.083L410.611 132.028L411.75 134L412.25 135L413.389 137L414.611 139L415.194 140L416.389 142L417.611 144L418.194 145L419.389 147L420.611 149L421.806 151L422.389 152L423.028 153L423.667 154L424.333 155L425.667 157L426.333 158L427.611 160L428.833 162L429.444 163L430.167 164L431.611 166L432.306 167L433.694 169L434.389 170L435.861 172L436.639 173L437.361 174L438.139 175L438.861 176L440.389 178L441.194 179L442.806 181L444.389 183L445.222 184L447 186L447.917 187L449.611 189L450.389 190L452.083 192L454 194L456 196L458 197.917L460 199.611L461 200.389L463 202.083L465 203.917L467 205.611L468 206.361L470 207.861L471 208.639L472 209.361L473 210.139L475 211.611L477 213L479 214.333L481 215.611L482 216.167L483 216.75L484 217.222L486 218.222L487 218.778L488 219.222L489 219.778L490 220.222L491 220.75L493 221.611L495 222.306L496 222.583L497 222.806L498.944 223.222L499.5 223.278L501 224L500.222 224.806L499.694 224.972L498.889 225.333L497.972 225.583L496 225.944L495 226.056L493 226.472L492 226.861L490 227.778L488 228.861L487 229.472L485.028 231.083L484.083 232.028L482.417 234L481.694 235L480.389 237L479.833 238L479.278 239L478.833 240L478.389 241L478.028 242L477.333 244L476.694 246L476.389 247L475.861 249L475.639 250L475.389 251L475.083 253L474.917 255L474.778 256L474.389 258L474.083 260L474.028 261L474 262L474 263L474 265L473.972 267L473.917 268L473.611 270L473.389 271L473.083 273L473.028 274L473.083 276L473.389 278L473.611 279L473.917 281L473.972 282L474 284L474 286L474.028 288L474.083 289L474.389 291L474.611 292L474.917 294L474.972 295L475.028 297L475.222 299L475.611 301L476 303L476.389 305L476.611 306L476.806 307L477.194 309L477.389 310L477.861 312L478.139 313L478.611 315L478.806 316L479.194 318L479.389 319L479.639 320L479.861 321L480.389 323L480.694 324L481 325L481.333 326L482.333 329L483.333 332L483.667 333L484.389 335L484.806 336L485.556 338L485.833 339L486.444 341L486.833 342L487.611 344L488.389 346L488.833 347L489.25 348L490.222 350L490.778 351L491.222 352L491.75 353L492.167 354L492.611 355L493.389 357L493.833 358L494.278 359L494.833 360L495.389 361L496.611 363L497.75 365L498.25 366L499.389 368L500.694 370L501.389 371L502.139 372L503.639 374L504.389 375L506.083 377L508 379L510 380.917L512 382.583L514 383.917L515 384.444L516 384.917L518 385.583L519 385.778L520 385.917L522 385.972L524 385.75L525 385.528L526 385.139L527 384.722L528.972 383.528L530.75 381.917L532.167 380L533.361 378L534.389 376L535.111 374L535.361 373L535.611 372L535.917 370L536.083 368L536.222 367L536.611 365L536.917 363L536.972 362L536.917 360L536.611 358L536.389 357L536.056 355L535.778 353L535.611 352L535.139 350L534.861 349L534.611 348L534.306 347L533.667 345L532.972 343L532.611 342L532.167 341L531.75 340L531.222 339L530.75 338L530.167 337L529.611 336L528.389 334L527.167 332L526.556 331L525.833 330L525.139 329L523.611 327L521.944 325L521.056 324L519.389 322L518.611 321L516.917 319L515 317.083L513 315.389L512 314.611L510 312.944L509 312.056L507 310.389L506 309.611L504 307.917L503 306.972L501 305L500 304L498 302L496 300L494.083 298L492.417 296L491.028 294L490.389 293L489.25 291L488.75 290L487.639 288L487.056 287L486.056 285L485.194 283L484.833 282L484.444 281L483.861 279L483.611 278L483.306 277L483 276L482.417 274L482.222 273L482 271L481.778 269L481.389 267L481.222 266L481.083 265L481 263L481 262L481 261L481 259L481 257L481 256L481.028 254L481.083 253L481.389 251L481.611 250L482 248L482.417 246L483.028 244L483.417 243L483.917 242L484.5 241L486.083 239.028L487.028 238.083L488 237.25L489 236.5L490 235.917L492 235.028L494 234.417L496 234.083L498 234.028L499 234.083L501 234.417L502 234.694L504 235.333L506 236.028L507 236.389L508 236.833L509 237.278L511 238.444L512 239.167L513 239.861L515 241.389L517 243.083L518 244.028L519 245L521 247L522 248L523.917 250L524.778 250.972L526.306 252.778L527 253.611L527.694 254.389L529.139 256.083L530.611 258L531.306 259L532 260L532.667 261L534.667 264L538 269L539.333 271L539.972 272L540.611 273L541.194 274L542.389 276L543.611 278L544.194 279L545.389 281L546.611 283L547.75 285L548.25 286L549.389 288L550.611 290L551.75 292L552.222 293L553.222 295L553.778 296L554.222 297L554.778 298L555.222 299L556.222 301L556.778 302L557.222 303L557.778 304L558.222 305L558.778 306L559.222 307L559.778 308L560.222 309L560.778 310L561.222 311L561.778 312L562.778 314L563.222 315L563.778 316L564.222 317L564.778 318L565.222 319L566.222 321L566.75 322L567.611 324L568.389 326L569.25 328L569.75 329L570.611 331L571.389 333L572.25 335L573.222 337L573.75 338L574.611 340L575.389 342L576.25 344L576.75 345L577.611 347L578.389 349L579.194 351L579.611 352L580.389 354L581.194 356L581.611 357L582.389 359L582.806 360L583.611 362L584.389 364L585.194 366L585.611 367L585.972 368L586.333 369L586.667 370L587.333 372L587.667 373L588.389 375L588.806 376L589.194 377L589.972 379L590.611 381L590.861 382L591.167 383L591.444 384L592.167 386L592.556 387L593.139 389L593.389 390L594 392L594.333 393L594.667 394L595.333 396L596 398L596.611 400L597.139 402L597.389 403L597.694 404L598.306 406L598.583 407L598.806 408L599.194 410L599.417 411L600 413L600.611 415L601.139 417L601.611 419L601.806 420L602.194 422L602.389 423L602.861 425L603.139 426L603.361 427L603.611 428L603.944 430L604.056 431L604.389 433L604.611 434L604.806 435L605.194 437L605.389 438L605.778 440L605.917 441L606.028 443L606.083 444L606.222 445L606.611 447L606.778 448L606.917 449L607.083 451L607.222 452L607.611 454L607.917 456L607.972 457L608 458L608 460L608 466L608 467L608.028 469L608.083 470L608.389 472L608.611 473L608.833 475L608.611 477L608.389 478L608.083 480L608.028 481L608 483L608 485L608 486L607.972 488L607.917 489L607.611 491L607.389 492L607.222 493L607.056 494L606.944 495L606.611 497L606.361 498L606.139 499L605.861 500L605.306 502L605 503L604.333 505L603.972 506L603.611 507L602.75 509L602.222 510L601.75 511L601.167 512L599.972 514L598.583 516L596.917 517.972L595.972 518.917L594 520.528L592.056 521.722L591.056 522.167L590.5 522.5L589 523L589 518L589 516L589 514L588.917 512L588.75 511L588.528 510L588.139 509L587.722 508L586.611 506L585.972 505L584.583 503L583.778 502.028L582.917 501.083L581 499.472L579 498.278L577 497.472L575 497.083L574 497.028L572 497.083L570 497.5L568.028 498.5L567.083 499.25L565.5 501.028L564.944 502L564.167 504L563.722 506L563.611 507L563.694 509L563.833 510L564.222 512L564.5 513L565.5 515L567.083 516.889L568.028 517.694L570 518.889L572 519.583L573 519.778L575 519.889L576 519.75L577 519.5L578.972 518.5L580.694 516.917L581.889 515L582.306 514L583.028 512.056L583.194 511.5L584 510L585.139 510.778L585.333 511.306L585.722 512.111L585.889 513.028L585.972 514L586 516L586 517L585.972 519L585.889 520L585.278 521.972L583.889 523.667L582 524.667L580 524.972L578 525L576 524.917L574 524.611L572 524.194L571 524L569 523.528L568 523.167L566 522.389L565 522L564 521.583L562 520.583L560 519.389L558 518.194L557 517.611L555 516.306L554 515.583L553 514.806L551 513.194L550 512.389L549 511.611L547 509.917L546 508.972L544 507L542 505L539 502L537 500L535.028 498L534.083 497L532.389 495L531.611 494L530 492L528.389 490L526.806 488L525.194 486L524.389 485L522.861 483L522.139 482L521.361 481L519.861 479L519.139 478L518.361 477L517.639 476L516.861 475L516.139 474L515.389 473L514 471L513.333 470L512 468L510.667 466L510.028 465L509.389 464L508.806 463L507.611 461L506.333 459L505 457L503 454L502.333 453L501.028 451L500.389 450L499.806 449L498.611 447L497.389 445L496.25 443L495.75 442L494.611 440L493.972 439L493.333 438L492.028 436L491.389 435L490.25 433L489.778 432L489.222 431L488.75 430L487.611 428L486.389 426L485.25 424L484.75 423L483.611 421L482.389 419L481.25 417L480.222 415L479.75 414L479.167 413L478.056 411L477.528 410L476.472 408L475.944 407L474.833 405L474.25 404L473.222 402L472.778 401L471.778 399L471.222 398L470.778 397L469.778 395L469.222 394L468.778 393L468.222 392L467.778 391L466.75 389L466.167 388L465.639 387L465.056 386L464.056 384L463.167 382L462.75 381L461.778 379L461.222 378L460.778 377L460.222 376L459.778 375L459.222 374L458.778 373L458.222 372L457.222 370L456.778 369L456.222 368L455.778 367L455.222 366L454.778 365L454.222 364L453.778 363L453.222 362L452.222 360L451.778 359L451.222 358L450.778 357L450.222 356L449.75 355L448.528 353L447.75 352L446.944 351L446.056 350L444.472 348L443.861 347L443.25 346L442.75 345L441.611 343L440.972 342L439.611 340L438.861 339L438.139 338L437.361 337L436.611 336L434.917 334L433.972 333L432 331L430 329.028L429 328.083L427 326.389L426 325.611L424 324L422 322.417L421 321.694L420 321L418 319.667L416 318.333L415 317.667L413 316.389L412 315.833L411 315.25L410 314.778L409 314.222L408 313.778L407 313.25L405 312.389L403.056 311.639L402.056 311.167L401.5 310.972L400 310L400.361 308.528L401.333 307.167L402.111 306.389L404 304.778L406 302.972L407 302L409 300.083L411 298.389L412 297.639L414 296.167L415 295.472L417 294.472L419 293.833L420 293.556L422 292.833L423 292.444L425 291.833L426 291.556L427 291.167L429 290.389L431 289.667L432 289.333L434 288.667L435 288.333L436 287.972L437 287.611L439 286.75L440 286.25L442 285.361L443 284.944L445 284L447 283L449 281.944L450 281.361L451 280.806L452.972 279.528L454.667 277.972L455.639 276.5L456 275L453.944 275L452 275.083L450 275.389L449 275.639L448 275.861L446 276.444L445 276.833L443 277.611L441 278.389L440 278.833L439 279.25L437 280.25L436 280.833L434 281.944L433 282.472L431 283.528L430 284.056L429 284.639L427 285.75L426 286.25L424 287.389L422 288.611L420 289.806L419 290.389L417 291.611L416 292.167L415 292.722L413 293.556L411 294.139L410 294.361L408 294.861L407 295.139L406 295.361L405 295.611L403 295.944L402 296.056L400 296.389L399 296.639L397 297.139L396 297.361L395 297.611L393 297.944L392 298.056L390 298.389L388 298.778L386 299.056L384 299.389L383 299.611L381 299.944L380 300.056L378 300.389L377 300.611L375 300.917L374 300.972L372 301.083L371 301.222L369 301.611L367 301.944L366 302.056L365 302.222L363 302.583L361 302.694L359 302.389L358 302.222L357 302.056L356 301.944L354 301.611L352 301.222L351 301.083L349 300.917L348 300.778L346 300.389L344 300.056L343 299.944L341 299.611L339 299.222L338 299.083L336 298.917L334 298.611L332 298.194L330 297.806L329 297.611L327 297.139L326 296.861L324 296.389L322 296.056L321 295.944L319 295.611L318 295.389L316 295L315 294.806L314 294.611L313 294.361L312 294.111L310 293.389L308 292.306L307 291.667L305 290.389L303 289.25L301 288.222L300 287.75L298 286.611L296 285.389L294 284.25L293 283.75L291 282.639L290 282.056L288 281.056L287 280.639L285 279.75L283 278.833L282 278.389L280 277.611L279 277.194L277 276.444L276 276.167L274 275.639L273 275.389L271 275.167L270.056 275.25L269.056 275.417L267 276L268.083 277.417L269.278 278.639L270.083 279.306L272 280.611L274 281.75L275 282.222L276 282.778L277 283.222L279 284.222L280 284.75L282 285.611L284 286.389L285 286.806L287 287.611L289 288.389L291 289.194L292 289.611L294 290.333L295 290.667L298 291.667L301 292.667L302 293L304 293.611L305 293.889L307 294.611L308 295.111L310 296.417L312 298.056L313 298.944L315 300.611L316 301.389L318 303.083L319.972 305L320.889 306L322.278 307.944L322.889 309.5L323 311L321.5 311.278L319.944 311.861L319 312.25L318 312.778L317 313.222L316 313.778L315 314.222L314 314.778L312 315.778L311 316.25L309 317.389L308 318.028L306 319.333L304 320.694L303 321.389L302 322.139L300 323.639L299 324.389L297 326.083L296 327.028L294 329L292 331L290 333L288.083 335L286.389 337L285.639 338L284.861 339L283.389 341L282.083 343L281.528 344L280.472 346L279.917 347L278.667 349L278.028 350L277.389 351L276.806 352L275.611 354L274.389 356L273.833 357L273.278 358L272.833 359L271.944 361L271 363L270 365L268 369L267 371L266.056 373L265.639 374L265.167 375L264.75 376L263.778 378L263.222 379L262.778 380L261.75 382L261.167 383L260.639 384L260.056 385L259 387L258 389L256 393L255 395L253.944 397L253.361 398L252.833 399L252.25 400L251.222 402L250.778 403L250.222 404L249.222 406L248.75 407L248.167 408L247.056 410L246.528 411L245.472 413L244.944 414L243.833 416L243.25 417L242.778 418L241.75 420L240.611 422L239.389 424L238.25 426L237.75 427L236.611 429L235.389 431L234.806 432L233.611 434L232.389 436L231.25 438L230.75 439L229.611 441L228.389 443L227.194 445L226.611 446L225.389 448L224.806 449L223.611 451L222.389 453L221.194 455L220.611 456L219.972 457L219.333 458L218.667 459L216.667 462L214.667 465L214 466L212.611 468L211.861 469L210.389 471L209.694 472L208.306 474L207.611 475L206.861 476L205.389 478L204.694 479L204 480L202.583 482L201 484L199.389 486L198.611 487L197.806 488L196.194 490L195.389 491L194.611 492L192.944 494L192.056 495L190.389 497L189.611 498L187.917 500L186.972 501L186 502L184 504L182 506L180 507.972L179 508.917L177 510.611L176 511.389L174 513L172 514.583L170 516L168 517.333L166 518.611L164 519.75L163 520.222L162 520.778L161 521.222L160 521.75L159 522.167L157 522.972L155 523.611L154 523.861L153 524.139L151 524.611L149 524.917L147 525L145 525L143 524.917L141.083 524.5L140.25 524.056L139.5 523.5L138.5 521.917L138 520L137.806 519L137.611 518L137.389 517L137.111 515L137.111 514L137.222 513.056L137.417 512.056L138 510L140 510L141 511L141.028 512.5L141.333 514.056L141.722 515L143.111 516.917L144.028 517.75L145 518.5L147 519.5L149 519.889L151 519.75L152 519.528L154 518.722L154.972 518.139L155.917 517.528L157.528 515.917L158.722 514L159.528 512L159.75 511L159.917 510L160 508L159.972 507L159.75 505L159.5 504L158.5 502L157.75 501L156.917 500.028L155 498.333L154 497.722L152 497.111L150 497L149 497.028L147 497.306L146 497.639L144 498.722L143 499.417L141 501.083L139.083 503L138.25 504L137.472 505L136.278 507L135.389 509L135.028 510L134.417 512L134.222 513L134.083 514L134 516L134 517L134 518.944L134 522L132.5 521.639L130.944 520.667L130 519.889L128 518L126.083 516L125.25 515L124.472 514L123.25 512L122.778 511L122.25 510L121.833 509L121 507L120.194 505L119.833 504L119.472 503L119.222 502L118.806 500L118.611 499L118.139 497L117.861 496L117.639 495L117.389 494L117.083 492L117.028 491L117 490L116.972 488L116.917 487L116.611 485L116.389 484L116.083 482L116.028 481L116 480L116 478L116 473L116 470L116 468L116.028 466L116.083 465L116.389 463L116.611 462L116.917 460L116.972 459L117 457L117 455L117.028 454L117.083 453L117.389 451L117.778 449L117.917 448L118.083 446L118.222 445L118.611 443L118.917 441L119.083 439L119.389 437L119.611 436L119.806 435L120.194 433L120.389 432L120.611 431L120.944 429L121.056 428L121.417 426L121.694 425L122.306 423L122.583 422L122.806 421L123.194 419L123.389 418L123.861 416L124.139 415L124.361 414L124.861 412L125.139 411L125.361 410L125.639 409L125.861 408L126.389 406L126.694 405L127.306 403L127.611 402L128.139 400L128.389 399L128.694 398L129.306 396L129.611 395L129.861 394L130.444 392L131.167 390L131.556 389L132.167 387L132.444 386L132.833 385L133.556 383L133.833 382L134.444 380L135.194 378L135.611 377L136.333 375L136.667 374L137.389 372L137.806 371L138.556 369L139.167 367L139.444 366L140.194 364L140.611 363L141.389 361L142.194 359L142.611 358L143.389 356L143.806 355L144.611 353L145.389 351L146.25 349L146.75 348L147.611 346L148.389 344L149.194 342L149.611 341L150.389 339L150.833 338L151.25 337L152.222 335L152.75 334L153.611 332L154.389 330L154.833 329L155.25 328L155.778 327L156.222 326L156.778 325L157.75 323L158.167 322L159.056 320L159.528 319L160.472 317L160.944 316L161.833 314L162.25 313L162.778 312L163.222 311L163.778 310L164.778 308L165.222 307L165.778 306L166.222 305L166.778 304L167.222 303L167.778 302L168.222 301L169.25 299L169.833 298L170.944 296L171.472 295L172.528 293L173.056 292L174.167 290L174.75 289L175.778 287L176.25 286L177.389 284L178.611 282L179.75 280L180.25 279L181.389 277L182.028 276L182.667 275L183.333 274L184.611 272L185.194 271L186.389 269L187.694 267L189.139 265L189.861 264L190.611 263L192 261L193.417 259L194.194 258L195.806 256L197.389 254L199.056 252L199.944 251L201.611 249L203.222 247.083L204.083 246.222L205.028 245.389L206 244.611L208 242.944L209 242.056L211 240.417L212 239.694L214 238.389L216 237.278L218 236.389L219 236.028L221 235.333L222 235L224 234.417L225 234.222L226 234.083L228 234.083L230 234.417L232 235L234 235.694L235 236.111L236 236.639L236.972 237.306L237.917 238.111L239.528 240L240.722 242L241.167 243L241.972 245L242.583 247L242.944 249L243.056 250L243.389 252L243.611 253L243.917 255L243.972 256L244 258L244 259L243.972 261L243.917 262L243.611 264L243.389 265L243.083 267L243.028 268L242.917 270L242.611 272L242.139 274L241.861 275L241.361 277L241.139 278L240.556 280L239.806 282L238.944 284L238.472 285L237.5 287L237 288L235.944 290L234.806 292L234.167 293L233.556 294L232.833 295L232.139 296L230.611 298L228.917 300L227.972 301L226 303L224 304.972L223 305.917L221 307.611L220 308.389L219 309.194L217 310.806L216 311.611L214 313.222L213 314.083L211 316L209 318L208 319L206.028 321L205.083 322L203.389 324L201.806 326L200.194 328L198.694 330L197.389 332L196.806 333L195.611 335L194.417 337L193.889 338L193 340L192.611 341L191.75 343L191.25 344L190.472 346L190.222 347L190 348L189.611 350L189.361 351L189.139 352L188.639 354L188.389 355L188.083 357L188 359L188 360L188 362L188 364L188.028 366L188.083 367L188.389 369L188.639 370L189.139 372L189.389 373L189.694 374L190.389 376L190.833 377L191.278 378L192.472 380L193.25 380.972L194.083 381.917L196 383.528L198 384.722L199 385.139L200 385.528L202 385.917L203 385.972L205 385.917L207 385.528L209 384.722L211 383.556L212 382.833L214 381.361L215.972 379.778L216.917 378.917L218.611 377L219.389 376L221 374L221.806 373L223.306 371L224.611 369L225.194 368L226.389 366L227.611 364L228.167 363L228.75 362L229.222 361L229.778 360L230.222 359L230.75 358L231.167 357L232.056 355L232.528 354L233.472 352L233.944 351L234.361 350L235.25 348L235.75 347L236.611 345L237.389 343L238.194 341L238.611 340L239.333 338L240 336L241 333L242.333 329L243 327L243.611 325L243.861 324L244.389 322L244.694 321L245.306 319L245.583 318L245.806 317L246.194 315L246.389 314L246.861 312L247.139 311L247.361 310L247.611 309L247.917 307L248.083 305L248.222 304L248.389 303L248.861 301L249.139 300L249.361 299L249.611 298L249.917 296L249.972 295L250 293L250.028 291L250.083 290L250.389 288L250.611 287L250.917 285L250.972 284L251 283L251 281L251 275L251 268L251 266L251 265L250.917 263L250.778 262L250.611 261L250.222 259L250.083 258L249.972 256L249.917 255L249.611 253L249.361 252L248.861 250L248.639 249L248.361 248L248.139 247L247.556 245L247.167 244L246.389 242L245.611 240L245.167 239L244.722 238L243.528 236L242.778 235L241.194 233.028L239.611 231.222L238.778 230.417L237.917 229.694L236 228.417L234 227.417L232.056 226.694L231.056 226.417L230.5 226.25L229 226L229.361 224.778L230.333 223.889L231.111 223.472L233 222.833L234 222.556L235 222.167L237 221.389L239 220.611L240 220.167L241 219.75L242 219.222L244 218.222L245 217.75L246 217.167L247 216.611L249 215.389L251 214.194L252 213.611L254 212.306L256 210.861L257 210.139L258 209.361L260 207.861L261 207.139L263 205.611L265 203.917L267 202.083L268 201.222L270 199.611L272 197.917L274 196L275.972 194L276.917 193L278.611 191L279.389 190L281.083 188L282.972 186L283.917 185L285.611 183L286.389 182L287.194 181L288.806 179L289.611 178L290.389 177L292 175L293.583 173L295 171L295.694 170L296.389 169L297.139 168L298.611 166L299.972 164L301.194 162L301.806 161L302.389 160L303.667 158L304.333 157L305.667 155L306.333 154L306.972 153L307.611 152L308.806 150L309.389 149L310.667 147L311.333 146L311.972 145L312.611 144L313.75 142L314.25 141L315.389 139L316.611 137L317.75 135L318.25 134L319.472 132L321.083 130.028L322.028 129.111L323.944 127.722L325.5 127.111L327 127M296 140L295.889 141.5L295.361 143.056L294.306 145L293.667 146L293 147L291.667 149L291.028 150L290.389 151L289.806 152L288.611 154L287.389 156L286.194 158L285.611 159L284.389 161L283.194 163L282.611 164L281.333 166L280 168L278 171L276.667 173L275.389 175L274.194 177L273.611 178L272.333 180L271 182L270.306 183L269.611 184L268.861 185L267.389 187L266.694 188L265.306 190L264.611 191L263.139 193L262.361 194L261.639 195L260.861 196L260.139 197L258.611 199L257.806 200L256.194 202L255.389 203L254.611 204L252.917 206L251.972 207L251 208L249 209.917L247 211.611L246 212.361L244 213.861L243 214.611L242 215.306L240 216.611L238 217.75L237 218.222L236 218.75L235 219.167L234 219.611L232 220.306L231 220.611L230 220.861L228 221.361L227 221.611L225 221.917L224 221.972L222 222L220 221.917L218 221.528L217 221.167L216 220.806L214 219.917L213.028 219.361L211.306 217.889L210.111 216L209.417 214L209.083 212L209.028 211L209 210L209.083 208L209.389 206L209.639 205L210.167 203L210.444 202L211.25 200L211.778 199L212.778 197L213.25 196L214.444 194L215.167 193L215.861 192L217.389 190L219.083 188L220.028 187L222 185L224 183L225 182.028L226 181.083L228 179.389L229 178.611L231 177L233 175.389L235 173.861L236 173.139L237 172.361L238 171.639L240 170.139L241 169.389L242 168.694L244 167.389L246 166.25L247 165.75L249 164.611L251 163.389L253 162.194L254 161.611L256 160.389L257 159.833L258 159.25L259 158.778L260 158.222L261 157.778L263 156.75L264 156.167L266 155.056L267 154.528L269 153.472L270 152.944L272 151.833L273 151.25L275 150.222L276 149.778L277 149.222L278 148.778L279 148.222L280 147.778L281 147.222L282 146.778L284 145.778L285 145.222L286 144.778L288 143.75L289 143.167L290 142.611L291.944 141.389L292.5 141.056L294 140L296 140M435 141L436.5 141.278L438.056 141.861L439 142.25L440 142.778L441 143.222L442 143.778L443 144.222L444 144.778L445 145.222L446 145.778L448 146.778L449 147.222L450 147.778L451 148.222L452 148.778L453 149.222L454 149.778L456 150.778L457 151.25L458 151.833L459 152.389L461 153.611L462 154.167L463 154.75L464 155.222L466 156.222L467 156.778L468 157.222L470 158.25L471 158.833L473 160L475 161.167L476 161.75L478 162.778L479 163.25L480 163.833L481 164.389L483 165.611L485 166.833L486 167.444L487 168.167L489 169.611L490 170.306L492 171.694L493 172.389L494 173.139L495 173.861L497 175.389L499 177L501 178.611L502 179.389L504 181.083L505 182.028L506 183L508 185L509 186L510.917 188L511.778 189L512.583 190L514 192L514.667 193L515.972 195L517.167 197L517.75 198L518.75 200L519.167 201L519.611 202L520.306 204L520.583 205L520.917 207L520.972 208L521 210L520.917 212L520.75 213L520.528 214L520.139 215L519.722 216L518.528 217.917L516.917 219.528L515.972 220.139L515 220.722L513 221.528L512 221.75L511 221.917L509 222L508 222L507 222L505 221.917L504 221.778L502 221.361L500 220.861L499 220.611L497 219.972L496 219.611L494 218.75L493 218.222L492 217.75L491 217.167L490 216.611L488 215.306L487 214.611L486 213.861L484 212.361L483 211.611L481 209.917L479 208L478.028 207L477.083 206L475.389 204L474.611 203L473 201L471.389 199L469.861 197L469.139 196L468.361 195L467.639 194L466.861 193L465.389 191L464.694 190L463.306 188L462.611 187L461.861 186L460.444 184L459.167 182L458.556 181L457.167 179L456.444 178L455.194 176L454.611 175L453.333 173L452.667 172L451.333 170L450.667 169L449.389 167L448.806 166L447.611 164L446.333 162L445.667 161L445.028 160L444.389 159L443.194 157L442.611 156L441.333 154L440.667 153L439.389 151L438.806 150L437.611 148L436.972 147L435.694 145L434.694 143.111L434.556 142.306L434.389 141.778L435 141M353 224L354.472 224.528L355.833 225.5L357.389 227.083L358.222 228.028L360 230L361.667 232L362.278 233L362.778 235L362.639 236L361.694 238L360.194 240L359.389 241L358.611 242L356.917 244L355.972 245L355 246L353 248L351 250L350 251L348 252.972L347 253.917L345 255.611L344 256.389L342 258L341 258.806L340 259.611L338 261.139L337 261.861L336 262.611L334 263.917L333 264.472L331 265.5L330 266L328 266.917L327 267.306L326 267.667L325 268L323 268.583L321 268.917L320 268.972L319 269L317 269L315 268.972L314 268.889L312 268.389L310.028 267.5L308.25 266.389L307.472 265.694L306.25 263.972L305.778 263L304.861 261L304.472 260L304.083 258L304 256L304 255L304 253L304.028 252L304.083 251L304.389 249L304.611 248L304.806 247L305.194 245L305.417 244L305.694 243L306.333 241L307 239L307.333 238L308.028 236L308.389 235L309.25 233L309.778 232L310.25 231L311.472 229L312.25 228L313.083 227L315 225L316.972 223L317.917 222L319.611 220L321.222 218L322.083 217L323.917 215L324.778 214L325.611 213L327.194 211L328.806 209L329.611 208L330.361 207L331.139 206L331.861 205L332.611 204L334 202L334.667 201L336 199L337.389 197L338.139 196L339.639 194L340.389 193L342.083 191.028L344 189.25L346 187.861L347 187.278L349 186.389L351 185.694L352 185.417L354 185.083L356 185.111L357.972 185.639L359.75 186.722L360.5 187.417L361.5 189.083L361.75 190.028L361.917 191L361.972 193L361.917 194L361.778 195L361.583 196L360.889 198L359.694 200L357.972 201.917L356 203.528L355 204.167L354 204.806L352 206L350 207.194L349 207.806L348 208.389L346 209.694L345 210.417L344 211.222L343 212.083L341.028 214L340.083 215L338.5 217L337.5 219L337.25 220L337.111 222L337.5 224L338.5 225.917L340.083 227.5L342 228.5L343 228.722L345 228.722L347 228.139L348 227.722L349.944 226.583L351.5 225.417L353 224M375 225L376.5 225.028L378.056 225.306L380 226.083L381 226.639L383 227.722L385 228.528L386 228.722L387 228.833L389 228.5L390.917 227.5L392.5 225.917L393.5 224L393.75 223L393.889 222L393.889 221L393.5 219L393.056 218L391.75 216L389.972 214L388 212.083L387 211.222L386 210.417L385 209.694L383 208.389L382 207.833L381 207.25L379 206.222L378 205.75L376 204.528L374.028 202.917L373.083 201.972L371.472 200L370.278 198L369.472 196L369.083 194L369.028 193L369.111 191L369.722 189.028L371.111 187.25L372.028 186.5L374 185.5L375 185.25L377 185.111L378 185.222L379 185.417L381 186.028L383 186.833L384 187.278L386 188.472L387.972 190.083L388.917 191.028L390.583 193L392 195L393.389 197L394.861 199L395.639 200L397.139 202L397.861 203L398.639 204L399.361 205L400.139 206L400.861 207L402.389 209L403.194 210L404.806 212L406.389 214L408.056 216L408.944 217L410.583 218.917L412 220.611L412.694 221.389L413.417 222.222L414.222 223.083L415.083 224.028L416.917 226L418.583 228L419.972 230L420.583 231L421.583 233L422.389 235L423.194 237L423.611 238L423.972 239L424.667 241L425 242L425.583 244L425.806 245L426.194 247L426.611 249L426.778 250L426.917 251L427 253L427 254L426.972 256L426.917 257L426.611 259L426.361 260L426.111 261L425.778 262L424.889 263.917L423.583 265.583L421.917 266.917L420.972 267.444L420 267.917L418 268.583L416 268.917L415 268.972L413 269L412 269L410 268.917L408 268.528L407 268.167L405 267.444L404 267.139L402 266.417L400 265.5L399 265L397 263.917L395 262.583L393 261L392 260.194L391 259.389L390 258.639L389 257.861L388 257.139L387 256.361L386 255.611L384 253.917L383 252.972L381 251L380 250L378 248L376 246L375.028 245L374.083 244L372.389 242L371.611 241L370.806 240L370.028 239L369.306 238L368.722 237L368.222 235L368.722 233L369.333 232L371.028 230L372.889 228.056L374.222 226.5L375 225M330 203L329.667 204.25L329.361 204.667L328.889 205.444L328.278 206.222L326.889 207.972L326.222 208.944L325.75 209.5L325 211L324.389 210.222L324.556 209.694L324.694 208.889L325.722 207L327.167 205.111L328.028 204.306L328.528 203.778L330 203M403 204L404.25 205.5L405.417 207.056L406.111 207.944L406.778 208.944L407.25 209.5L408 211L406.5 210.222L405.944 209.694L404.111 207.972L402.778 206.111L402.583 205.306L402.389 204.778L403 204M365 205L366.222 205.778L366.556 206.306L367.139 207.111L368 209L368.833 211L369.278 212L369.833 213L370.389 214L371.667 216L372.333 217L373.583 218.944L374.111 219.944L374.472 220.5L375 222L373.75 223.5L372.583 225.056L371.861 225.972L371.139 226.917L370.389 227.778L369.056 229.333L368.056 230.583L367 232L365.5 231.889L364.028 231.278L362.389 229.889L360.861 228L360.139 227L359.389 226L358.111 224L357.639 223L357.222 221L357.694 219L358.25 218L359.556 216L360.75 214L361.222 213L361.778 212L362.75 210L363.556 208.028L364.167 206.306L364.25 205.778L365 205M323 212L322 213L323 212M318 297L319.5 297.75L320.056 297.833L321.056 298.167L322 298.361L324 298.861L325 299.139L327 299.639L328 299.861L329 300.139L331 300.611L332 300.806L334 301.194L335 301.389L337 301.861L338 302.139L340 302.611L341.944 302.972L342.944 303.222L343.5 303.278L345 304L344.222 305.139L343.694 305.333L342.889 305.722L341 306.056L339 306.389L337 306.861L336 307.139L335 307.361L334 307.611L332 307.889L330 307.694L328 306.889L327 306.278L325 304.861L323 303.389L322 302.694L320.028 301.306L319.111 300.583L317.778 299.028L317.389 297.778L318 297M406 297L405.639 298.5L404.667 299.972L402.972 301.583L402 302.306L400 303.694L399 304.417L397 305.972L396 306.694L395 307.278L393 307.861L391 307.778L389 307.389L388 307.194L386 306.806L385 306.611L384 306.389L382 306L380.111 305.556L379.306 305.139L378.778 304.972L378 304L379.5 303.278L380.056 303.25L381.056 303.028L382 302.944L384 302.583L385 302.306L387 301.694L388 301.417L390 301.056L391 300.944L393 300.583L394 300.306L396 299.694L397 299.417L399 299L401 298.583L402 298.306L403.944 297.667L404.5 297.444L406 297M384 315L383.639 316.5L382.667 318.056L381.889 319L380.972 320L380 321L378 323L376 325L372 329L370 331L368 333L366.083 334.972L364.389 336.75L363.667 337.5L362.833 338.083L362.417 338.472L361 339L359.528 337.5L358.167 335.944L356.611 334L354.917 332L353.972 331L352 329L351 328L348 325L346 323L345 322L344 321.028L343.056 320.111L342.056 319.306L341.5 318.778L340 318L340 314L341.5 313.917L343.056 313.528L345 312.833L346 312.444L348 311.833L349 311.556L351 310.833L352 310.444L354 309.861L355 309.639L356 309.361L357 309.139L358 308.861L360 308.389L361 308.25L362 308.167L364 308.417L365 308.694L366 309L368 309.611L370 310.139L371 310.389L373 311L375 311.667L377 312.333L378 312.667L380 313.333L380.944 313.639L381.944 314.028L382.5 314.194L384 315M336 374L334.5 373.667L333.944 373.389L332.056 372.611L331.5 372.333L330 372L330.028 373.5L330.222 375.056L330.611 377L330.833 379L330.5 381L330.083 382L329.583 383L328.389 385L327.194 387L326.611 388L325.333 390L324.667 391L323.389 393L322.25 395L321.75 396L320.611 398L319.972 399L319.333 400L318.028 402L317.389 403L316.25 405L315.75 406L315.167 407L314.611 408L313.389 410L312.167 411.972L311.528 412.889L309.917 414.25L308 414.639L307 414.5L305 413.75L304 413.222L302 412.222L301 411.778L300 411.222L299 410.75L297 409.556L295 408.139L294 407.361L292.083 405.778L290.389 403.972L289.639 403L288.167 401L287.444 400L286.25 398L285.778 397L285.25 396L284.444 394L284.167 393L283.639 391L283.389 390L283.083 388L283.028 387L283 385L283 384L283 381L283 379L283 378L283.028 376L283.083 375L283.389 373L283.611 372L284 370L284.222 369L284.472 368L284.833 367L285.194 366L286 364L286.806 362L287.194 361L288.056 359L289.056 357L289.639 356L290.194 355L291.389 353L292.694 351L293.389 350L294.139 349L294.861 348L295.639 347L296.389 346L298.083 344L300 342L301 341L303 339L305 337L306 336L308 334.083L309 333.222L310 332.389L312 330.806L314 329.194L315 328.417L316 327.694L317 327L319 325.667L320 325.028L321 324.389L322 323.806L324 322.611L325 322L326 321.389L328 320.278L329 319.861L331 319.278L332 319.194L333 319.361L334.917 320.333L336.611 322.028L337.389 323L339.083 325L340.917 327L342.611 329L343.361 330L344.861 332L345.639 333L346.389 334L348 336L349.583 338L351 340L351.694 341L353.111 343L353.75 344L354.583 346L354.472 348L353.5 350L352.778 351L351.194 353L349.611 355L348 357L346.417 359L345.694 360L344.306 362L343.611 363L342.861 364L341.389 366L340 368L338.667 370L338.056 370.944L337.389 371.944L337.056 372.5L336 374M413 415L412 413.5L411.778 412.944L410.75 411L409.611 409L408.389 407L407.25 405L406.75 404L405.611 402L404.972 401L404.333 400L403.667 399L402.389 397L401.806 396L400.611 394L399.333 392L398.667 391L397.389 389L396.806 388L395.611 386L394.417 384L393.917 383L393.5 382L393.083 380L393 378L393 377L393 375.056L393 372L392 372L390 374L388 374L386.75 372.5L386.361 371.944L385.639 370.944L385 370L383.611 368L382.139 366L381.389 365L380.694 364L379.306 362L378.611 361L377.139 359L376.361 358L374.861 356L374.139 355L372.611 353L371.028 351L369.722 349L369.194 347L369.278 346L369.944 344L370.472 343L371.861 341L372.611 340L373.306 339L374.694 337L375.417 336L376.194 335L377.806 333L379.389 331L381.056 329L381.944 328L383.611 326L384.389 325L386.083 323L388 321.111L389 320.333L390 319.722L392 319.222L394 319.611L396 320.5L397 321L399 322.083L401 323.333L403 324.667L405 326L406 326.694L407 327.389L408 328.139L410 329.639L411 330.389L412 331.194L414 332.806L415 333.611L416 334.389L418 336.083L419 337.028L421 339L422 340L423.917 342L425.611 344L426.389 345L428 347L429.583 349L430.306 350L431.611 352L432.194 353L432.806 354L433.361 355L434.472 357L435 358L436 360L436.944 362L437.361 363L438.167 365L438.556 366L438.833 367L439.139 368L439.611 370L440 372L440.389 374L440.611 375L440.917 377L441 379L441 381L441 383L440.972 385L440.917 386L440.611 388L440.361 389L439.861 391L439.611 392L438.972 394L438.611 395L437.722 397L436.611 399L435.972 400L434.583 402L432.917 404L431.972 405L430 406.917L428 408.528L427 409.167L425 410.389L423 411.611L422 412.167L421 412.722L419 413.611L417 414.306L416.056 414.583L414.5 414.917L413 415M363 358L364 359.5L364.222 360.056L364.806 361.056L365.25 362L366.389 364L367.611 366L368.75 368L369.25 369L370.389 371L371.611 373L372.75 375L373.222 376L374.25 378L374.833 379L375.944 381L377 383L377.5 384L378.5 386L379 387L380.056 389L381.083 390.944L381.722 392.5L382 394L380.75 395.5L379.556 397.056L377.917 399L376 401L374 402.917L372 404.611L371 405.389L369 407.056L368 407.944L366 409.5L364 410.5L362 410.833L361 410.722L359 410.083L357 408.972L355 407.583L353 405.917L352 404.972L350 403.028L349.028 402.083L347.222 400.389L346.389 399.611L345.611 398.778L344.028 396.972L342.75 395L342.417 394L342.5 392L342.833 391L343.194 390L343.639 389L344.056 388L345.056 386L346.167 384L346.75 383L347.778 381L348.222 380L348.778 379L349.778 377L350.25 376L351.389 374L352.611 372L353.75 370L354.25 369L355.389 367L356.611 365L357.75 363L358.25 362L358.806 361.056L359.778 359.5L361 358L363 358M450 370L451.222 370.778L451.583 371.306L452.194 372.111L453.222 374L454.222 376L454.778 377L455.222 378L456.25 380L456.833 381L457.389 382L458.611 384L459.167 385L459.75 386L460.222 387L461.222 389L461.778 390L462.222 391L463.25 393L463.833 394L464.389 395L465.611 397L466.167 398L466.75 399L467.222 400L467.778 401L468.25 402L469.389 404L470.611 406L471.75 408L472.25 409L473.389 411L474.611 413L475.75 415L476.222 416L477.25 418L478.389 420L479.611 422L480.75 424L481.25 425L482.389 427L483.611 429L484.75 431L485.25 432L486.389 434L487.611 436L488.75 438L489.222 439L489.778 440L490.25 441L491.389 443L492.028 444L493.333 446L493.972 447L494.611 448L495.167 449L495.75 450L496.25 451L497.389 453L498.028 454L498.667 455L499.333 456L500.611 458L501.806 460L502.389 461L503.667 463L504.333 464L505.667 466L506.333 467L506.972 468L507.611 469L508.806 471L509.389 472L510.694 474L512.139 476L512.861 477L513.611 478L514.306 479L515.694 481L516.389 482L517.139 483L518.611 485L519.306 486L520 487L521.417 489L523 491L524.611 493L525.389 494L526.194 495L527.806 497L528.611 498L530.222 500L532 502L532.917 503L534.611 505L535.389 506L537.083 508L538.028 509L539 510L541 512L543 513.972L544 514.917L546 516.611L547 517.389L548 518.194L550 519.806L551 520.611L553 522.139L554 522.861L556 524.361L557 525.139L558 525.833L559 526.556L561 527.75L562 528.222L563 528.778L564 529.222L565 529.75L567 530.611L568 530.972L570 531.667L572 532.306L572.944 532.583L573.944 532.778L574.5 532.917L576 533L575.889 534.472L575.278 535.806L574.667 536.528L572.972 537.75L572 538.222L570 539.222L569 539.778L568 540.222L567 540.75L565 541.611L563 542.306L562 542.611L560 543.139L559 543.361L558 543.611L556 543.944L555 544.056L554 544.222L553 544.389L552 544.611L550 544.917L549 544.972L547 545L546 545L544 545L538 545L536 545L535 544.972L534 544.917L532 544.611L531 544.389L529 544.083L527 543.917L525 543.611L523 543.194L521 542.806L520 542.583L518 542L517 541.667L516 541.333L514 540.667L511 539.667L510 539.333L508 538.611L507 538.167L506 537.75L505 537.222L503 536.222L502 535.75L501 535.167L500 534.611L498 533.389L496 532.194L495 531.611L493 530.333L492 529.667L491 529L489 527.583L488 526.806L486 525.194L484 523.611L482 521.917L481 520.972L480 520L478 518L476 516L475.028 515L474.083 514L472.389 512L471.611 511L470.778 510L469.944 509L469.056 508L467.417 506L466.083 504.056L465.694 503.5L465 502L466.5 501.028L467.056 500.833L468.056 500.361L469 500.028L471 499.389L472 499.139L474 498.611L475 498.306L477 497.667L479 496.972L480 496.611L482 495.722L484 494.611L486 493.389L488 492.167L489 491.528L491 489.917L492.972 488L493.917 487L495.528 485L496.75 483L497.222 482L497.75 481L498.611 479L499.306 477L499.583 476L499.917 474L499.972 472L499.917 471L499.611 469L499.361 468L498.833 466L498.556 465L497.722 463L497.167 462L495.972 460L494.583 458L492.917 456L491.972 455L490 453.083L488 451.417L486 450.028L484 448.833L483 448.25L482 447.778L481 447.222L480 446.778L479 446.222L478 445.778L477 445.25L476 444.833L474 444.028L472 443.389L471 443.139L470 442.861L468 442.389L466 442L464 441.611L463 441.389L461 441.083L460 441.028L459 441L457 441L450 441L443 441L441 441L440 441.028L439 441.083L437 441.389L436 441.639L435 441.861L434 442.139L432.056 442.611L431.056 442.778L430.5 442.917L429 443L428.306 441.5L427.944 440.944L426.806 439L426.194 438L425.611 437L424.389 435L423.25 433L422.75 432L421.611 430L421 429L420.389 428L419.25 426L418.75 425L418.167 424L417.083 422L416.306 420.056L416.111 419.056L416 417L417.5 416.889L419.056 416.389L420 415.972L422 415L424 413.944L425 413.361L426 412.806L427 412.194L428 411.611L430 410.306L431 409.583L433 407.917L435 406L435.972 405L436.917 404L438.611 402L439.361 401L440.861 399L441.611 398L442.306 397L443.611 395L444.167 394L444.722 393L445.167 392L445.611 391L445.972 390L446.667 388L447.306 386L447.611 385L447.861 384L448.139 383L448.611 381L448.917 379L448.972 378L449 376L449 374L449.028 373.028L449.056 372.111L449.25 371.306L449.278 370.778L450 370M274 372L274.333 373.5L274.417 375.056L274.417 377L274.472 378L274.639 379L274.944 381L275.056 382L275.472 384L275.833 385L276.194 386L277 388L277.806 390L278.194 391L278.639 392L279.056 393L280.083 395L281.333 397L282 398L283.417 400L285.083 402L286.028 403L288 405L290 406.972L291 407.917L293 409.611L295 411.139L296 411.833L297 412.556L299 413.75L300 414.222L301 414.778L303 415.75L304 416.167L305.944 417L306.5 417.194L308 418L307.722 419.5L307.083 421.056L306 423L305.389 424L304.25 426L303.75 427L302.611 429L301.389 431L300.25 433L299.75 434L298.611 436L297.389 438L296.806 439L295.583 440.944L295.222 441.5L294 443L292.5 442.75L290.944 442.361L290 442.139L289 441.861L288 441.639L287 441.389L285 441.083L284 441.028L283 441L281 441L274 441L267 441L265 441L264 441.028L263 441.083L261 441.389L260 441.639L258 442.139L257 442.361L256 442.639L255 442.861L253 443.389L252 443.694L251 444L249 444.667L248 445.028L247 445.389L245 446.25L244 446.778L243 447.25L242 447.833L241 448.389L240 449.028L238 450.417L236 452.083L235 453.028L233 455L231.083 457L229.472 459L228.833 460L227.639 462L227.056 463L226.083 465L225.417 467L225.083 469L225 471L225 473L225.083 475L225.417 477L225.694 478L226.389 480L226.833 481L227.278 482L228.472 484L229.222 485L230.806 486.972L232.389 488.778L233.222 489.611L235.028 491.139L237 492.556L238 493.139L239 493.75L240 494.222L242 495.222L243 495.75L244 496.167L245 496.611L247 497.389L249 498.167L250 498.556L252 499.139L253 499.389L254 499.694L255.944 500.333L256.5 500.556L258 501L257.889 502.5L257.306 504.056L256.111 506L255.361 507L254.611 508L252.917 510L251.972 511L250 513L249 514L247.083 515.972L246.222 516.917L244.611 518.611L243.778 519.389L241.972 521.083L240 522.972L239 523.917L237 525.611L235 527.139L234 527.861L233 528.611L232 529.306L230 530.667L228 532L227 532.667L225 533.917L224 534.472L222 535.5L220 536.472L219 536.944L217 537.806L216 538.194L215 538.611L213 539.389L211 540.167L210 540.556L209 540.833L207 541.389L206 541.694L204 542.306L203 542.611L201 543.139L200 543.361L199 543.611L197 543.917L195 544.083L194 544.222L192 544.611L190 544.917L189 544.972L187 545L185 545L180 545L178 545L177 545L175 545L174 544.972L173 544.917L171 544.611L170 544.389L168 544.056L167 543.944L165 543.583L164 543.306L162 542.667L160 542L159 541.667L158 541.333L156 540.611L155 540.167L154 539.722L153 539.167L152 538.611L151 537.972L149.111 536.639L148.306 535.833L147.778 535.417L147 534L148.5 533.278L149.056 533.222L150.056 532.972L152 532.583L154 531.972L156 531.194L157 530.806L159 529.944L161 528.944L162 528.361L164 527.25L165 526.75L166 526.167L168 524.972L170 523.583L171 522.806L173 521.194L175 519.611L176 518.778L177 517.917L179 516L180 515L181 514L183 512L188 507L190 505L190.972 504L191.917 503L193.611 501L194.389 500L195.222 499L196.944 497L197.778 496L198.611 495L200.139 493L200.861 492L201.639 491L202.361 490L203.861 488L204.639 487L205.361 486L206.139 485L207.611 483L208.306 482L209 481L210.333 479L213.667 474L215 472L216.389 470L217.139 469L217.833 468L218.556 467L219.167 466L220.389 464L221.611 462L222.806 460L223.389 459L224.667 457L225.333 456L225.972 455L226.611 454L227.194 453L228.389 451L229.611 449L230.75 447L231.25 446L232.389 444L233.611 442L234.806 440L235.389 439L236.611 437L237.75 435L238.25 434L239.389 432L240.611 430L241.75 428L242.222 427L243.25 425L243.833 424L244.389 423L245.611 421L246.75 419L247.25 418L248.389 416L249.611 414L250.75 412L251.25 411L252.389 409L253.611 407L254.167 406L254.75 405L255.778 403L256.25 402L257.361 400L257.944 399L258.472 398L259.528 396L260.056 395L260.639 394L261.75 392L262.25 391L263.389 389L264.611 387L265.75 385L266.222 384L266.778 383L267.222 382L267.778 381L268.222 380L268.778 379L269.222 378L270.25 376L271.417 374.111L272.194 373.306L272.583 372.778L274 372M341 398L343.056 400.056L345 401.972L346 402.917L348 404.611L349 405.389L351 407L353 408.528L354 409.167L355.889 410.472L356.667 411.194L357.639 412.528L358 414L356.5 414.444L355.944 414.667L354.944 415L354 415.333L352 416L351 416.306L350 416.611L348 417.139L347 417.361L346 417.611L345 417.806L343 418.194L342 418.389L341 418.611L339 418.917L338 418.972L337 419L335 419L330 419L330.083 417.5L330.472 415.944L331.25 414L331.778 413L332.222 412L332.778 411L333.222 410L333.75 409L334.639 407L335.056 406L336.056 404L337.111 402L338 400.056L338.194 399.5L339 398L341 398M385 398L385.444 399.5L385.694 400.056L386.083 401.056L387 403L387.5 404L388.5 406L389 407L389.944 409L390.361 410L390.833 411L391.25 412L392.222 414L392.75 414.944L393.167 415.944L393.5 416.5L394 418L392.5 418.722L391.944 418.75L390.944 418.944L390 418.972L388 419L386 419L384 418.917L382 418.611L381 418.361L380 418.139L379 417.861L377 417.389L376 417.194L374 416.806L373 416.583L371 416L370 415.667L369.056 415.361L368.056 414.972L367.5 414.806L366 414L366.361 412.528L367.333 411.167L368.111 410.389L370 408.861L371 408.139L372 407.361L374 405.778L375 404.917L377 403L378 402L380 400.111L381.944 398.722L383.5 398.111L385 398M409 450L407.5 451L406.944 451.222L405.944 451.806L405 452.25L403 453.389L402 454.028L400 455.333L398 456.611L397 457.167L395 458.139L394 458.528L393 458.75L392 458.917L390 459L389 459L388 459L386 459L380 459L377 459L376 459L374 459.083L372 459.472L371 459.861L370 460.278L368.083 461.472L366.472 463.083L365.361 465L365.083 466L364.861 467.944L364.833 468.5L365 470L365.75 468.5L365.861 467.944L366.694 466.028L368.111 464.25L370 462.917L371 462.417L372 462.028L374 461.417L376 461.083L377 461.028L378 461L380 461L382 461L383 461L384 461.028L384.944 461.056L385.944 461.25L386.5 461.278L388 462L387.222 463.417L386.694 463.833L385.889 464.667L384.972 465.389L383 467.083L381 469L379 471L377.083 473L375.389 474.889L374.611 475.667L373.833 476.278L372.472 476.889L371 477L371 478.5L370.889 480.056L370.694 481L370.361 482L369.917 483L369.389 484L368.417 486L367.611 488L366.833 490L366.472 490.944L366.083 492.5L366 494L365 495L360 495L359 494L358.889 492.5L358.694 491.944L358.389 490.944L357.583 489L356.806 487L356.389 486L355.889 485L354.694 483L354.111 482L353.417 480L353.444 479L354.333 477L355.083 476L355.944 475L357.5 473.056L358.083 472.056L358.472 471.5L359 470L357.75 471.5L356.556 473.056L354.972 474.944L353 477L351 477L349.583 475.5L349.167 474.944L347.611 473L345.917 471L344 469.028L343 468.083L341 466.389L339.111 464.833L338.306 463.972L337.778 463.472L337 462L338.5 461.278L339.056 461.25L340.056 461.056L341 461.028L342 461L343 461L345 461L347 461L348 461.028L349 461.083L351 461.417L353 462.028L354 462.417L355.972 463.5L357.667 465.028L358.639 466.5L359 468L359.611 466.5L359.222 464.944L357.889 463.083L356 461.472L355 460.861L353 459.861L352 459.472L351 459.25L350 459.083L348 459L346 459L345 459L343 459L338 459L336 459L335 459L333 458.917L331 458.528L329 457.722L327 456.611L325 455.389L324 454.833L323 454.25L322 453.778L321 453.222L320 452.778L318 451.75L317.056 451.194L315.5 450.222L314 449L314.5 447.5L314.833 446.944L315.25 445.944L316.222 444L316.778 443L317.222 442L317.778 441L318.222 440L319.222 438L319.778 437L320.222 436L320.778 435L321.778 433L322.222 432L322.778 431L323.222 430L323.778 429L324.222 428L324.778 427L325.778 425.028L326.25 424.083L327.472 422.5L328.25 421.944L329.083 421.5L331 421.139L333 421.167L334 421.222L335 421.167L336 421.139L338 421.028L339 421L340 421L342 420.917L344 420.583L345 420.306L347 419.694L348 419.417L349 419.194L351 418.722L353 418L354 417.583L356 416.806L357 416.417L358 416L359 415.611L361 415.111L363 415.111L365 415.611L367 416.472L368 416.944L369 417.361L370 417.806L372 418.528L374 419L376 419.472L378 420.167L379 420.528L381 420.917L383 421L384 421L386 421.083L387 421.222L389 421.528L390 421.556L391 421.528L392 421.389L393 421.333L394.917 421.75L396.528 423.111L397.139 424.028L398.222 426L398.778 427L399.222 428L399.778 429L400.222 430L400.778 431L401.222 432L402.222 434L402.778 435L403.222 436L403.778 437L404.222 438L404.778 439L405.222 440L405.778 441L406.222 442L406.778 443L407.222 444L407.75 445L408.528 446.944L408.917 448.5L409 450M292 447L291.472 448.5L291.111 449.056L290.583 450.056L289.389 452L288.806 453L287.611 455L286.389 457L285.25 459L284.778 460L284.222 461L283.75 462L282.611 464L281.389 466L280.25 468L279.75 469L278.611 471L278 472L276.833 474L276.25 475L275.778 476L275.222 477L274.75 478L273.611 480L272.972 481L271.667 483L271.028 484L270.389 485L269.25 487L268.75 488L268.167 489L266.972 491L265.611 493L264.861 494L263.361 495.972L261.778 497.667L260.917 498.25L259.972 498.583L258 498.5L256 497.833L255 497.472L253 497L252 496.806L251 496.583L250 496.306L249 496L248 495.667L247 495.333L245 494.583L244 494.111L243 493.583L241 492.389L239 491.167L238 490.528L236 488.917L235 487.972L233.083 486L231.472 484L230.861 483L230.278 482L229.861 481L229.444 480L228.861 478L228.639 477L228.389 476L228.083 474L228.056 473L228.083 472L228.417 470L229 468L229.694 466L230.111 465L230.611 464L231.889 462L232.639 461L233.389 460.028L235.083 458.222L237 456.639L238 455.861L239 455.139L241 453.694L243 452.389L244 451.833L245 451.278L247 450.389L249 449.611L251 448.833L252 448.444L253 448.167L255 447.611L256 447.306L257 447L259 446.417L260 446.222L262 446L264 445.778L266 445.389L268 445.083L269 445.028L271 445L273 445L276 445L278 445L279 445L280 445L282 445.083L283 445.222L284 445.389L286 445.778L288 446L288.944 446.056L289.944 446.25L290.5 446.278L292 447M462 499L461.25 497.5L460.778 496.944L460.111 495.944L459.389 495L458.694 494L457.389 492L456.806 491L455.611 489L454.389 487L453.194 485L452.611 484L451.389 482L450.806 481L449.611 479L448.389 477L447.25 475L446.75 474L445.611 472L444.389 470L443.25 468L442.75 467L441.611 465L440.389 463L439.25 461L438.75 460L437.611 458L436.389 456L435.806 455L434.611 453L433.417 451L432.917 450.056L432.278 448.5L432 447L433.5 446.278L434.056 446.25L435.056 446.056L436 446.028L438 445.917L440 445.611L441 445.389L443 445.083L444 445.028L446 445L447 445L449 445L452 445L454 445L456 445.028L457 445.083L459 445.389L461 445.778L462 445.917L464 446.083L466 446.417L467 446.694L469 447.333L471 448L472 448.333L474 449.028L475 449.389L477 450.25L478 450.778L479 451.222L480 451.778L481 452.25L483 453.389L484 454.028L486 455.417L488 457.083L489.972 459L491.778 461L493.278 463L493.917 464L494.917 466L495.583 468L495.778 469L495.917 470L496 472L496 473L496 474L495.917 476L495.583 478L494.972 480L494.167 482L493.722 483L492.528 485L490.917 486.972L489.972 487.917L488 489.583L486 490.972L484 492.194L483 492.806L482 493.361L480 494.389L478 495.139L477 495.444L476 495.833L474 496.528L473 496.778L472 497L470 497.417L468 498L466 498.583L465.056 498.778L463.5 498.972L462 499M314 452L315.5 453L316.056 453.222L317.056 453.778L318 454.167L319 454.639L320 455.056L322 456L323.972 456.944L324.889 457.389L326.278 458.444L326.667 459.194L327 461L325.5 461.028L323.944 461.25L323 461.472L322 461.833L320 462.556L318 463.139L317 463.389C315.988 463.684 314.987 464.019 314 464.389L313 464.806L311 465.611L309 466.306L308.056 466.583L306.5 466.917L305 467L305.444 465.5L306.083 463.944L307.056 462L307.639 461L308.167 460L308.75 459L309.222 458L310.25 456L311.417 454.111L312.194 453.306L312.583 452.778L314 452M412 453L412.5 454.5L412.833 455.056L413.25 456.056L414.25 458L414.833 459L415.389 460L416.583 462L417.083 462.944L417.722 464.5L418 466L416.5 465.972L414.944 465.778L414 465.583L412 465L410 464.333L409 464L406 463L405 462.667L403 462L401 461.417L400.056 461.222L398.5 461.028L397 461L397.361 459.583L398.333 458.417L400.028 457.25L402 456.25L403 455.833L405 454.944L406 454.472L408 453.611L408.944 453.306L410.5 453.028L412 453M349 480L347.5 480.528L346.944 480.889L345.944 481.417L344 482.611L342 483.75L341 484.222L340 484.778L339 485.222L337 486.222L336 486.75L335 487.139L334 487.556L333 487.861L331 488.583L329 489.417L327 490.139L326 490.444L324 491.167L323 491.556L322 491.833L320 492.389L318 493L317 493.333L315 494L313 494.611L312 494.861L310 495.389L309 495.694L307 496.306L306 496.583L304 496.944L303 497.056L301 497.389L300 497.639L299 497.861L298 498.139L297 498.361L296 498.611L294 498.917L293 498.972L292 499L290 499L285 499L285.361 497.5L285.694 496.944L286.25 495.944L287.611 494L288.306 493L289.694 491L290.389 490L291.861 488L292.611 487L293.972 485L294.611 484L295.194 483L296.389 481.028L297.028 480.083L298.417 478.389L300.083 476.861L301.028 476.167L302 475.444L303 474.833L305 473.611L306 472.972L308 471.694L309 471.083L311 470.056L313 469.167L314 468.75L316 467.778L317 467.25L318 466.833L319 466.389L321 465.611L323 464.833L324 464.444L326 463.833L327 463.556L328 463.167L329 462.833L330 462.5L332 462.333L333 462.528L335 463.5L336 464.222L338 465.806L339 466.611L340 467.389L342 469.083L343 470.028L344.972 472L345.917 473L347.5 475L348.5 476.944L348.75 477.944L349 480M439 499L435.944 499L434 499L432 498.972L431 498.917L429 498.611L428 498.361L427 498.139L426 497.861L425 497.639L424 497.389L422 497.056L421 496.944L419 496.583L418 496.306L416 495.694L415 495.417L414 495.194L412 494.806L411 494.583L410 494.306L408 493.667L407 493.333L405 492.667L404 492.333L402 491.611L401 491.194L399 490.444L397 489.833L396 489.556L394 488.806L393 488.389L391 487.611L390 487.167L389 486.75L388 486.222L387 485.778L386 485.222L384 484.222L383 483.75L382 483.167L380 482.056L378.056 481.028L377.056 480.444L376.5 480.167L375 479L375 477L379 473L381 471L383 469L384 468.028L386 466.222L387 465.417L389 464.028L391 462.917L392 462.528L393 462.333L395 462.5L396 462.833L398 463.611L400 464.333L401 464.667L403 465.333L405 466.028L406 466.389L408 467.25L410 468.222L411 468.778L412 469.222L414 470.25L415 470.833L416 471.389L418 472.611L420 473.833L421 474.444L422.917 475.861L423.778 476.639L424.583 477.389L425.972 479.083L426.611 480.028L427.806 482L428.389 483L429.028 484L429.667 485L431 487L432.333 489L433 490L434.417 492L435.194 493L436.778 495L437.5 495.944L438.083 496.944L438.472 497.5L439 499M366 470L366.111 471.5L366.722 473.028L367.278 473.889L368.528 475.222L370 476L369.667 474.5L369.361 473.944L368.333 472.111L367.639 471.306L367.25 470.778L366 470M363 538L364.056 539.5L364.389 540.056L365.611 542L366.75 544L367.25 545L368.389 547L369.028 548L369.667 549L370.333 550L371.611 552L372.194 553L373.389 555L374.611 557L375.75 559L376.25 560L377.389 562L378.028 563L378.667 564L379.972 566L380.611 567L381.75 569L382.25 570L383.389 572L384.611 574L385.806 576L386.389 577L387.028 578L388.333 580L388.972 581L389.611 582L390.75 584L391.25 585L392.389 587L393.611 589L394.806 591L395.389 592L396.667 594L397.333 595L397.972 596L398.611 597L399.194 598L400.389 600L401.611 602L402.75 604L403.25 605L404.389 607L405.583 609L406.083 609.944L406.722 611.5L407 613L405.5 612.667L404.944 612.361L403.944 611.889L403 611.306L401 610.028L400 609.389L399 608.806L397 607.611L395 606.389L393 605.25L392 604.778L391 604.222L390 603.778L389 603.25L387 602.389L386 602.028L385 601.667L384 601.333L382 600.611L380 599.833L379 599.472L377 599.083L375 599L373 599L371 599.028L369 599.333L368 599.722L366.028 601.111L365.083 602.028L363.389 603.972L362.667 604.889L361.833 605.694L361.417 606.222L360 607L359.167 605.5L358.333 603.944L356.889 602.083L355.972 601.25L354 599.944L353 599.5L351 599.083L349 599L348 599L347 599L345 599.083L344 599.222L343 599.417L341 600L340 600.333L338 601.028L337 601.389L335 602.25L334 602.75L333 603.167L332 603.639L331 604.056L329 605.056L328 605.639L327 606.194L325 607.389L323 608.611L322 609.167L321.056 609.722L320.056 610.167L319.5 610.5L318 611L318.111 609.5L318.639 607.944L319.083 607L320.194 605L320.806 604L322 602L323.194 600L323.806 599L324.389 598L325.667 596L326.333 595L327.611 593L328.75 591L329.25 590L330.389 588L331.611 586L332.806 584L333.389 583L334.028 582L334.667 581L335.917 579L336.472 578L337.528 576L338.694 574L339.333 573L340.611 571L341.194 570L342.389 568L343.028 567L344.333 565L344.972 564L345.611 563L346.75 561L347.25 560L347.833 559L348.389 558L349.028 557L349.667 556L350.333 555L351.611 553L352.194 552L353.389 550L354.611 548L355.75 546L356.25 545L357.389 543L358.583 541.056L359.111 540.056L359.472 539.5L360 538L363 538M422 677L420.5 676.639L418.944 675.667L417.083 673.972L415.389 672L414.611 671L413 669L411.389 667L410.611 666L408.944 664L408.056 663L406.389 661L404.806 659L403.194 657L402.417 656L401 654L400.306 653L399.611 652L398.139 650L397.389 649L396.694 648L395.306 646L394.611 645L393.139 643L391.722 641L390.611 639L389.861 637L389.556 636L388.722 634L388.139 633L386.75 631L384.972 629.083L383 627.389L382 626.639L381 625.889L379 624.583L378 624.028L376 622.944L375 622.361L374 621.806L372 620.528L371 619.75L370 618.917L368.083 617L366.5 615L365.472 613L365.167 612L364.667 610L364.472 609L364.556 607L365.222 605.056L365.778 604.056L366 603.5L367 602L368.5 601.917L369.056 601.806L371 601.611L372 601.611L374 601.806L375 601.944L376 602.056L378 602.472L380 603.25L381 603.778L382 604.25L384 605.444L385 606.167L387 607.639L388 608.389L390 610.083L391 611.028L392.917 613L394.611 615L395.389 616L397.056 618L397.944 619L399.611 621L401.139 623L401.861 624L402.639 625L403.361 626L404.139 627L405.611 629L406.306 630L407 631L408.333 633L409.611 635L410.194 636L411.389 638L412.611 640L413.167 641L413.75 642L414.222 643L415.222 645L415.778 646L416.222 647L417.222 649L417.75 650L418.611 652L418.972 653L419.333 654L420 656L420.667 658L421 659L421.583 661L421.944 663L422.056 664L422.222 665L422.611 667L422.917 669L422.972 671L422.917 672L422.611 673.944L422.25 675.5L422 677M303 678L299 678L299 670L299 668L299 667L299.083 665L299.389 663L299.639 662L300.139 660L300.389 659L301 657L301.667 655L302.389 653L302.833 652L303.25 651L303.778 650L304.778 648L305.222 647L305.778 646L306.222 645L306.778 644L307.778 642L308.25 641L308.833 640L309.389 639L310.611 637L311.833 635L312.444 634L313.167 633L313.861 632L314.611 631L316 629L316.667 628L318 626L318.694 625L319.417 624L321.056 622L321.944 621L322.778 620L323.611 619L324.389 618L326.083 616L327.028 615L329 613L331 611L333 609.028L334 608.083L336 606.417L338 605.083L340 604.056L341 603.639L342 603.194L344 602.472L345 602.25L346 602.083L348 602L349 602L351 602.028L352 602.111L353.972 602.722L355.667 604.111L356.278 605.028L356.667 606L356.944 608L356.917 609L356.583 611L355.972 613L355.083 615L354.5 615.972L352.917 617.778L351 619.306L349 620.611L348 621.194L346 622.389L344 623.611L343 624.194L341 625.472L340 626.222L338.028 627.806L336.222 629.389L334.639 631.083L333.25 633L332.694 634L332.111 636L331.972 638L331.917 639L331.75 640L331.5 641L330.528 643L329.833 644L328.389 646L327.694 647L326.306 649L325.611 650L324.861 651L324.139 652L322.611 654L321.806 655L320.194 657L318.611 659L317 661L315.389 663L313.861 665L313.139 666L312.361 667L311.611 668L309.917 670L308 672L306.083 674L304.472 675.944L303 678M361 618L361.806 619.5L361.972 620.056L362.361 621.056L362.667 622L363.333 624L363.694 625L364.083 626L364.528 627L365.5 629L366 630L367.083 632L367.667 632.944L368.75 634.5L370 636L370 638L368.528 639.5L367.167 641.056L366.389 642L364.861 644L364.139 644.972L362.611 646.667L361.833 647.278L360.472 647.889L359 648L358.306 646.5L357.917 645.944L357.278 644.944L355.778 643L354.083 641L353.333 640L352.361 638L352.222 637L352.333 636L353.083 634L353.639 633L354.806 631L355.944 629L356.944 627L357.361 626L357.806 625L358.528 623L359.028 621.028L359.25 620.111L359.667 619.306L359.861 618.778L361 618M351 640L351.778 641.5L352.306 642.056L353.111 643.056L354.917 645L356.556 646.944L357.75 648.5L359 650L359 652L355.944 655.056L355 656L353.028 658L352.083 659L350.389 661L349.611 662L347.917 664L346.972 665L345 666.917L343 668.611L341 670.222L340 671.083L338 672.917L337 673.778L336 674.611L335 675.361L333 676.861L332 677.611L330 678.972L329 679.611L327 680.75L326 681.222L324 682.222L323 682.75L321 683.556L319 684.139L318 684.361L317 684.611L315 684.917L314 684.972L312 685L310 684.917L308 684.583L307 684.306L305.056 683.667L304.5 683.444L303 683L303.111 681.5L303.722 679.944L305.111 678L306.972 676L307.917 675L309.611 673L310.389 672L312.056 670L312.944 669L314.611 667L316.194 665L317.806 663L318.611 662L319.361 661L320.139 660L320.861 659L322.389 657L323.194 656L324 655L325.583 653L327 651L327.694 650L328.389 649L329.139 648L330.556 646.056L332 644L334.056 644.083L335.056 644.222L337 644.583L338 644.694L339 644.694L341 644.306L342 643.972L343 643.583L345 642.528L346 641.861L347.944 640.694L349.5 640.111L351 640M390 642L391.25 643.5L392.417 645.056L393.139 646L393.861 647L394.611 648L395.306 649L396 650L397.333 652L398 653L399.417 655L401 657L401.806 658L402.611 659L404.139 661L404.861 662L405.639 663L406.389 664L408.056 666L408.944 667L410.611 669L411.389 670L413.083 672L414.028 673L416 675L416.944 675.944L420 679L420 681L418.5 682.389L417.944 682.75L416 683.889L414 684.583L412 684.917L410 685L409 685L408 685L406 684.917L404 684.611L403 684.361L402 684.111L400 683.417L399 682.972L397 682.056L396 681.611L394 680.583L392 679.333L391 678.667L390 678L388 676.583L386 675L384 673.389L383 672.611L381 670.917L380 669.972L378 668L377 667L375 665L372 662L371 661L369.028 659L368.083 658L366.389 656.028L365.667 655.111L364.833 654.306L364.417 653.778L363 653L363.111 650.944L363.333 649.944L363.722 649L364.333 648L365.944 646L367.611 644L368.389 643.028L369.222 642.111L370.083 641.333L372 640.444L374 640.722L376 641.861L377 642.556L379 643.722L380 644.139L381 644.5L382 644.667L384 644.5L386 643.75L386.944 643.25L387.944 642.833L388.5 642.5L390 642M439 665L439.278 666.5L439.861 668.056L440.25 669L440.75 670L441.611 672L442.389 674L443.167 676L443.556 677L444.139 679L444.361 680L444.583 681L444.694 683L444.556 684L444.278 685L443.889 685.972L443.361 686.889L441.889 688.278L440.972 688.667L440 688.889L439 688.972L437 688.917L436 688.75L435 688.528L433 687.722L431 686.556L430.056 685.861L429.056 685.222L428.5 684.75L427 684L427 680L428.417 679.222L428.833 678.694L429.667 677.889L430.361 676.972L431.833 675L433.139 673L433.722 672L434.556 670L434.833 669L435.389 667.056L436 665L439 665M285 667L286.167 668.5L286.417 669.056L287.389 671L288.417 673L289.694 675L290.417 676L292.083 678L292.972 678.944L293.944 679.944L296 682L296 684L294.5 685.25L293.944 685.639L292 686.972L290 688.083L289 688.5L287 688.917L286 688.972L284 688.917L282.056 688.556L280.5 687.972L279 687L279 684.944L279 683.944L279 683L279.083 681L279.417 679L279.694 678L280.389 676L280.806 675L281.611 673L282.389 671L282.833 670.028L283.222 669.111L283.778 668.306L284 667.778L285 667z"/>
</svg>
